<?xml version="1.0" encoding="UTF-8"?>
<svg version="1.1" xmlns="http://www.w3.org/2000/svg" width="489" height="510">
<path d="M0 0 C19.00138734 7.66872135 34.26415524 45.60357403 41.66552734 62.80761719 C65.89325229 120.76622153 73.05243672 191.71095939 49 251 C41.09425712 269.43018551 31.74589312 286.50580235 19 302 C18.5265918 302.57637207 18.05318359 303.15274414 17.56542969 303.74658203 C4.09986843 320.02524569 -10.99564081 333.29338849 -28.10791016 345.63134766 C-29.92653614 346.94685956 -31.73560188 348.27454822 -33.54296875 349.60546875 C-46.06190327 358.76932176 -59.18730617 366.4170536 -73.17236328 373.12304688 C-74.8788383 373.9418631 -76.57838192 374.77508147 -78.27734375 375.609375 C-79.23769531 376.06828125 -80.19804687 376.5271875 -81.1875 377 C-82.00605469 377.391875 -82.82460937 377.78375 -83.66796875 378.1875 C-86.24636991 379.08583742 -88.2890677 379.15408496 -91 379 C-92.98648213 373.04055361 -92.38830027 366.23017684 -92.45996094 359.9777832 C-92.48652332 358.20960334 -92.52740018 356.44157711 -92.58300781 354.67407227 C-92.66260086 352.11151177 -92.69534238 349.55190062 -92.71875 346.98828125 C-92.75174194 346.20777908 -92.78473389 345.42727692 -92.81872559 344.62312317 C-92.79793566 338.84208923 -90.98448099 336.0324983 -86.9914856 331.93449402 C-86.33429535 331.29611099 -85.6771051 330.65772797 -85 330 C-83.79640729 328.74938261 -82.59352038 327.49808555 -81.39135742 326.24609375 C-80.13216715 324.97381242 -78.87011405 323.70435918 -77.60546875 322.4375 C-76.93203934 321.76074219 -76.25860992 321.08398438 -75.56477356 320.38671875 C-74.15687137 318.97379816 -72.74765282 317.56218809 -71.3371582 316.15185547 C-69.17045232 313.9829349 -67.01190348 311.80610093 -64.85351562 309.62890625 C-63.47965519 308.25211651 -62.10532344 306.87579688 -60.73046875 305.5 C-60.08466354 304.84700928 -59.43885834 304.19401855 -58.77348328 303.52124023 C-58.17558487 302.92641846 -57.57768646 302.33159668 -56.96166992 301.71875 C-56.43651291 301.19216797 -55.9113559 300.66558594 -55.37028503 300.12304688 C-54 299 -54 299 -52 299 C-51.67 298.01 -51.34 297.02 -51 296 C-49.60058594 294.62841797 -49.60058594 294.62841797 -47.734375 293.1171875 C-43.9182973 289.88152126 -40.39120722 286.45019769 -36.890625 282.8828125 C-36.08316833 282.06330109 -36.08316833 282.06330109 -35.25939941 281.22723389 C-33.01539319 278.9473706 -30.7749343 276.6642029 -28.54345703 274.37207031 C-26.89504799 272.68141871 -25.23740007 271.00029148 -23.578125 269.3203125 C-23.07702209 268.80058868 -22.57591919 268.28086487 -22.05963135 267.74539185 C-19.5250394 265.19234439 -17.66853916 263.33345865 -14 263 C-12.20749099 263.02978489 -10.41535417 263.09472254 -8.625 263.1875 C-2.19450321 263.23887547 0.65789286 261.15220656 5.3125 256.875 C7.76870815 252.69034908 8.18079382 248.81363534 8 244 C6.35688032 238.10409996 3.83924832 235.42780089 -1 232 C-6.22644641 230.2578512 -11.72100004 229.99652853 -16.75 232.5 C-20.62426355 235.0164609 -23.23710075 238.75802369 -25 243 C-24.67 243.66 -24.34 244.32 -24 245 C-23.60963908 250.17228217 -24.03481253 252.78910757 -27 257 C-29.16991527 259.44395084 -31.46727157 261.747687 -33.78515625 264.05078125 C-34.44204941 264.70958786 -35.09894257 265.36839447 -35.77574158 266.04716492 C-37.15931621 267.43209607 -38.54540186 268.81452268 -39.93383789 270.19458008 C-42.06567214 272.31565613 -44.18656942 274.44725166 -46.30664062 276.58007812 C-47.65300456 277.92512138 -48.99998827 279.26954459 -50.34765625 280.61328125 C-50.98413589 281.25380936 -51.62061554 281.89433746 -52.27638245 282.55427551 C-56.77005909 287 -56.77005909 287 -59 287 C-59.33749707 281.84714298 -59.62794072 276.69479878 -59.87109375 271.53662109 C-59.95461867 269.89301527 -60.05021696 268.24996066 -60.16015625 266.60791016 C-60.308334 264.36387211 -60.40897753 262.12199071 -60.5 259.875 C-60.58217773 258.86578491 -60.58217773 258.86578491 -60.66601562 257.83618164 C-60.77751508 253.67301923 -59.80353402 251.30453384 -57.1953125 248.23828125 C-55.8168512 246.80602293 -54.41563634 245.39552614 -53 244 C-52.12504883 243.10732422 -51.25009766 242.21464844 -50.34863281 241.29492188 C-47.38282701 238.27499786 -44.38050337 235.29283085 -41.375 232.3125 C-40.34090959 231.28344047 -39.30705398 230.25414493 -38.2734375 229.22460938 C-36.37302143 227.33227605 -34.471024 225.4415879 -32.56787109 223.55200195 C-30.88808637 221.8825981 -29.21143834 220.21003061 -27.53833008 218.53393555 C-25.26130896 216.26085656 -22.97063131 214.00251938 -20.673172 211.75012207 C-18.46039394 209.57779909 -16.25585769 207.3971855 -14.05151367 205.21630859 C-12.88944728 204.06941449 -11.72471517 202.92521528 -10.55737305 201.78369141 C-8.86052502 200.12329119 -7.1736077 198.45333363 -5.48828125 196.78125 C-4.96744461 196.27589722 -4.44660797 195.77054443 -3.9099884 195.24987793 C-0.2825422 191.62412917 1.84227264 188.70671887 2.14428711 183.52392578 C2.1056958 182.6729834 2.06710449 181.82204102 2.02734375 180.9453125 C1.72571657 165.48559676 1.72571657 165.48559676 5.33203125 161.28125 C8.25 159.625 8.25 159.625 11.2578125 158.3046875 C15.44618573 156.31192873 17.15266123 153.12512542 19 149 C21.07344371 142.77966886 20.69587672 135.90984952 18.109375 129.8828125 C14.8811025 124.40384297 9.99146312 120.11463404 4 118 C-4.05785289 116.20625188 -11.19534581 117.00951696 -18.265625 121.41015625 C-24.26606281 126.1104992 -26.94248926 131.67216017 -28.41015625 139.06640625 C-28.88179142 145.05254499 -26.25339739 150.11990391 -23 155 C-19.90771856 158.43027499 -16.81327924 160.62348183 -12.625 162.5625 C-11.75875 163.036875 -10.8925 163.51125 -10 164 C-8.99530173 167.46530661 -8.83798869 170.84359439 -8.8125 174.4375 C-8.79832031 175.34371094 -8.78414062 176.24992188 -8.76953125 177.18359375 C-9.30829916 183.76752022 -11.96421405 187.54223835 -16.6015625 192.02734375 C-17.43450333 192.8553524 -17.43450333 192.8553524 -18.28427124 193.7000885 C-20.05533407 195.45547697 -21.84005136 197.19624566 -23.625 198.9375 C-24.80164648 200.1026425 -25.97743625 201.26865085 -27.15234375 202.43554688 C-32.45994342 207.68600536 -37.78794122 212.86450368 -43.5065918 217.67163086 C-45.62998976 219.56036853 -47.27994454 221.74613422 -49 224 C-51.33983376 226.47747104 -53.76461934 228.79458404 -56.33203125 231.03515625 C-63.64040043 237.42313111 -70.09221382 243.14033058 -72 253 C-72.1881364 256.21886061 -72.07360232 259.40512042 -71.94140625 262.625 C-71.91400864 263.53072754 -71.88661102 264.43645508 -71.85838318 265.36962891 C-71.77014288 268.2468669 -71.66740891 271.12332537 -71.5625 274 C-71.46289679 276.87667588 -71.36658453 279.75335495 -71.27732849 282.63037109 C-71.22146703 284.4147635 -71.15951485 286.19897925 -71.09046936 287.98291016 C-70.69662683 300.1126327 -70.69662683 300.1126327 -73.62646484 304.35522461 C-74.65827881 305.36854858 -74.65827881 305.36854858 -75.7109375 306.40234375 C-76.83628906 307.51899414 -76.83628906 307.51899414 -77.984375 308.65820312 C-78.77328125 309.41037109 -79.5621875 310.16253906 -80.375 310.9375 C-81.15617187 311.71673828 -81.93734375 312.49597656 -82.7421875 313.29882812 C-88.57826879 319 -88.57826879 319 -92 319 C-92.0694916 306.30877571 -92.12280712 293.61759665 -92.15543652 280.92622089 C-92.1710965 275.03318375 -92.1923411 269.14027671 -92.22631836 263.24731445 C-92.25889955 257.56093757 -92.27685051 251.8746859 -92.28463173 246.18822289 C-92.29017743 244.01807878 -92.30100673 241.84794157 -92.31719017 239.67785072 C-92.33894765 236.6396564 -92.34196759 233.60198032 -92.34057617 230.5637207 C-92.351362 229.66532471 -92.36214783 228.76692871 -92.3732605 227.84130859 C-92.34082566 221.30194639 -91.05402511 218.03605988 -86.3203125 213.34375 C-85.25966107 212.39085366 -84.19429895 211.4431822 -83.125 210.5 C-81.96298326 209.4486673 -80.80288832 208.39520732 -79.64453125 207.33984375 C-79.04721191 206.79569824 -78.44989258 206.25155273 -77.83447266 205.69091797 C-74.77312262 202.86913059 -71.78099801 199.98150906 -68.8125 197.0625 C-68.26029785 196.53140625 -67.7080957 196.0003125 -67.13916016 195.453125 C-62.72658113 191.08067291 -60.91893976 187.78401605 -60.78881836 181.59960938 C-60.79587753 179.84758791 -60.81352364 178.09558798 -60.83984375 176.34375 C-60.84504532 175.40503052 -60.85024689 174.46631104 -60.85560608 173.49914551 C-60.87337512 170.49927111 -60.90447487 167.4997422 -60.9375 164.5 C-61.14419436 142.45020467 -61.14419436 142.45020467 -60.80078125 134.30859375 C-60.76251221 133.34493896 -60.72424316 132.38128418 -60.68481445 131.38842773 C-59.74269589 128.10260031 -58.13892729 127.26228457 -55.25 125.5625 C-54.34765625 125.13195312 -53.4453125 124.70140625 -52.515625 124.2578125 C-48.24624707 122.12312353 -45.97922411 119.02839281 -43.90625 114.734375 C-41.82378905 108.45108766 -41.89296335 101.3036763 -43.9921875 95.0390625 C-47.46666856 88.50232695 -51.97964597 85.17803191 -59 83 C-67.64049817 81.04017231 -75.14741734 82.19628557 -82.8125 86.625 C-87.90701211 92.15618457 -90.72715604 98.03437567 -91.13671875 105.58203125 C-90.78682441 111.7701626 -87.89997263 117.2789805 -84 122 C-80.52527752 124.64947589 -76.91114468 127.04442766 -73 129 C-72.82202124 136.68600719 -72.69971961 144.37148015 -72.61547852 152.05908203 C-72.58034934 154.67223977 -72.53263455 157.28526064 -72.47192383 159.89794922 C-72.38668215 163.66147677 -72.34723332 167.42318082 -72.31640625 171.1875 C-72.28027725 172.34926758 -72.24414825 173.51103516 -72.20692444 174.70800781 C-72.20415265 180.47754771 -72.47995466 184.13137786 -76.33984375 188.58959961 C-77.53681981 189.75067236 -78.7563443 190.88907151 -80 192 C-81.08859665 193.11995774 -82.17171291 194.24530411 -83.24609375 195.37890625 C-84.30696094 196.44303815 -85.37078812 197.50422704 -86.4375 198.5625 C-86.99735596 199.12332275 -87.55721191 199.68414551 -88.1340332 200.26196289 C-91.75086754 203.85586298 -95.46448618 207.22858788 -99.51171875 210.33984375 C-103.10539076 214.348533 -103.24968232 219.50859402 -103.24723816 224.65493774 C-103.24965257 225.29835975 -103.25206699 225.94178176 -103.25455457 226.6047014 C-103.26016072 228.74650134 -103.25155217 230.88799892 -103.24291992 233.02978516 C-103.24399356 234.57095927 -103.24593344 236.112133 -103.24867249 237.65330505 C-103.25351019 241.82874507 -103.24587907 246.00407782 -103.23571944 250.17950487 C-103.2269232 254.55117702 -103.22869668 258.92284596 -103.2290802 263.29452515 C-103.22814439 270.63321727 -103.21947077 277.97186798 -103.20581055 285.31054688 C-103.19007423 293.79594324 -103.1848129 302.2812943 -103.1855461 310.7667042 C-103.18615633 318.93165822 -103.18105208 327.0965975 -103.17275429 335.26154709 C-103.16922337 338.73593638 -103.16739132 342.21032046 -103.16686058 345.68471146 C-103.16585639 349.77392549 -103.15975351 353.86310146 -103.14969444 357.95230293 C-103.14677285 359.45352889 -103.14554339 360.95475924 -103.14612198 362.45598793 C-103.14661256 364.50367259 -103.1403397 366.55135555 -103.13371277 368.59902954 C-103.13203692 369.74532145 -103.13036108 370.89161335 -103.12863445 372.07264137 C-103.01812875 374.58744054 -102.63715309 376.59067234 -102 379 C-102.061875 380.134375 -102.12375 381.26875 -102.1875 382.4375 C-102.32819688 397.57648434 -93.02131368 410.63192806 -83 421 C-81.94425781 422.03253906 -81.94425781 422.03253906 -80.8671875 423.0859375 C-77.5609848 426.47245282 -75.54562044 428.84571665 -75.25 433.6875 C-75.55203778 436.92042291 -76.11677588 438.19073393 -77.875 441.0625 C-82.36664116 443.84731752 -85.85588269 444.024203 -91 443 C-101.42843883 439.08046772 -108.28575552 427.03831207 -112.875 417.4375 C-113.61384274 415.6372212 -114.32243113 413.82422389 -115 412 C-115.35578125 411.07703125 -115.7115625 410.1540625 -116.078125 409.203125 C-121.7024606 393.00168066 -122.22267396 375.90515518 -122.578125 358.92578125 C-122.59840193 358.01504097 -122.61867886 357.10430069 -122.63957024 356.16596222 C-123.29643906 325.71923861 -123.11362182 295.25694927 -123.07202786 264.80502754 C-123.06060987 256.29640352 -123.05529204 247.78777843 -123.05032361 239.27914858 C-123.04001941 221.85275685 -123.02256473 204.4263801 -123 187 C-122.37745834 186.66258286 -121.75491669 186.32516571 -121.11351013 185.9775238 C-120.29931107 185.53175491 -119.485112 185.08598602 -118.64624023 184.62670898 C-117.83807358 184.18616684 -117.02990692 183.74562469 -116.19725037 183.29173279 C-111.32797693 180.42915497 -108.06095742 176.12191484 -105.5625 171.125 C-104.26132217 163.89623429 -104.01057957 156.43110585 -108 150 C-113.07657526 144.1881966 -118.75332932 140.68028145 -126.41015625 139.6875 C-134.12682864 139.30584078 -140.27124774 141.72953338 -146.375 146.375 C-151.42169187 151.42169187 -152.60420682 156.30204949 -153.06640625 163.25390625 C-152.96754386 167.34215677 -151.88918005 170.41214544 -150 174 C-149.2265625 175.5159375 -149.2265625 175.5159375 -148.4375 177.0625 C-145.95073406 180.05937177 -144.26952234 180.94315113 -140.92016602 182.75854492 C-137.65758876 185.02806935 -136.2333498 186.21997826 -135.08370972 190.06289673 C-134.75763927 193.99433516 -134.74570726 197.86319442 -134.83984375 201.80078125 C-134.838841 203.31680738 -134.83325428 204.83283628 -134.82347107 206.34883118 C-134.81175027 209.61979486 -134.83111394 212.88855295 -134.87493896 216.15924072 C-134.94460106 221.36279631 -134.94878868 226.56509794 -134.94189453 231.76904297 C-134.9378691 237.29594453 -134.93935581 242.82263182 -134.96435547 248.3494873 C-135.02711953 262.59658773 -134.91287659 276.83629589 -134.71484375 291.08203125 C-134.68661328 293.15918468 -134.65838957 295.2363382 -134.63017273 297.31349182 C-134.5740663 301.40377915 -134.51706282 305.49405295 -134.45950317 309.58432007 C-134.33624782 318.36942464 -134.21608969 327.15451357 -134.11729622 335.93993187 C-134.09660315 337.69629543 -134.07394357 339.45263707 -134.04919243 341.20894814 C-134.0154018 343.61404143 -133.98810616 346.01912506 -133.96240234 348.42431641 C-133.95102202 349.12396672 -133.9396417 349.82361704 -133.92791653 350.54446888 C-133.89676456 354.16637505 -134.13528971 357.47874614 -135 361 C-139.92470424 359.47324859 -143.15547251 356.60638948 -146.9375 353.25 C-147.59282715 352.67145264 -148.2481543 352.09290527 -148.92333984 351.49682617 C-150.962368 349.67883552 -152.98451387 347.84403925 -155 346 C-155.61149902 345.44199707 -156.22299805 344.88399414 -156.85302734 344.30908203 C-185.54399917 317.78583761 -204.0973264 279.67770297 -208.1875 240.9375 C-208.27161133 240.14682129 -208.35572266 239.35614258 -208.44238281 238.54150391 C-212.72251224 193.21104219 -196.42311756 151.60998998 -168 117 C-161.54524047 109.47416147 -154.76526989 102.18907917 -147 96 C-146.15308594 95.30390625 -145.30617187 94.6078125 -144.43359375 93.890625 C-122.57866707 76.45227411 -97.78108742 62.55138165 -73.21875 49.34765625 C-33.858193 28.55478074 -33.858193 28.55478074 0 0 Z " fill="#67AD7E" transform="translate(313,43)"/>
<path d="M0 0 C0.66 0 1.32 0 2 0 C2 4.95 2 9.9 2 15 C2.66 15.33 3.32 15.66 4 16 C3.99476318 16.76143311 3.98952637 17.52286621 3.98413086 18.30737305 C3.96330475 21.76740692 3.95032187 25.22742759 3.9375 28.6875 C3.92912109 29.88568359 3.92074219 31.08386719 3.91210938 32.31835938 C3.90888672 33.47529297 3.90566406 34.63222656 3.90234375 35.82421875 C3.89710693 36.88729248 3.89187012 37.95036621 3.88647461 39.0456543 C3.99283156 41.8134509 4.37105212 44.30792897 5 47 C5.144375 46.38125 5.28875 45.7625 5.4375 45.125 C6 43 6 43 7 41 C8.125 42.5625 8.125 42.5625 9 45 C8.17118585 48.93686719 7.23639141 51.64541289 5 55 C6.32 55.66 7.64 56.32 9 57 C8.34 57.99 7.68 58.98 7 60 C7.93245297 64.57749638 9.50116272 68.08877642 12 72 C12.33 72.99 12.66 73.98 13 75 C13.99 75.66 14.98 76.32 16 77 C15.67 78.65 15.34 80.3 15 82 C15.99 82 16.98 82 18 82 C18.2475 82.78375 18.495 83.5675 18.75 84.375 C19.72681333 87.11976952 19.72681333 87.11976952 22 88 C24 89 24 89 25.25 91.625 C25.4975 92.40875 25.745 93.1925 26 94 C26.66 94 27.32 94 28 94 C28.33 95.32 28.66 96.64 29 98 C29.763125 97.62875 30.52625 97.2575 31.3125 96.875 C32.199375 96.58625 33.08625 96.2975 34 96 C34.99 96.66 35.98 97.32 37 98 C39.64632287 97.6878236 39.64632287 97.6878236 42 97 C43.14181469 92.97324226 43.14181469 92.97324226 41.9375 89.1875 C39.35930766 87.6073176 36.9787979 87.33097754 34 87 C34.33 84.69 34.66 82.38 35 80 C39.40570447 81.02458243 42.3019099 82.47866637 45.078125 86.15625 C46.86435974 89.72871948 46.84920658 93.15026349 46 97 C44.125 100.0625 44.125 100.0625 41 102 C35.72801503 103.19400357 31.18789941 102.55973672 26.5 99.875 C17.31654239 92.98740679 10.92525263 81.56798786 7 71 C6.64421875 70.07703125 6.2884375 69.1540625 5.921875 68.203125 C-1.67141615 46.32991317 -0.3671939 22.79615024 0 0 Z " fill="#559481" transform="translate(191,384)"/>
<path d="M0 0 C3.69029082 2.00559284 5.22609801 3.88115768 6.4375 7.8125 C7.25023208 12.00901085 6.74747432 15.04918849 5 19 C1.76933935 22.61073837 -1.30574742 23.72894602 -6.0078125 24.1015625 C-10.12403825 23.8917157 -12.92093063 22.04186008 -15.8125 19.25 C-17.49161119 16.06852616 -17.87801023 13.5986982 -18 10 C-16.55336018 5.43166373 -15.24699322 2.38893368 -11 0 C-7.13394995 -1.28868335 -3.88909035 -0.95708083 0 0 Z " fill="#80BD82" transform="translate(252,137)"/>
<path d="M0 0 C3.96220871 3.3961789 4.49510792 4.90778181 5 10.125 C4.88735068 14.43785966 3.45117939 16.95279071 0.625 20.25 C-2.36312362 22.59781141 -5.59411188 22.66825081 -9.34375 22.5703125 C-13.41825238 21.92779482 -16.25254791 19.67857538 -18.75 16.5 C-20.19899408 11.28362133 -20.07553657 7.60103481 -17.625 2.875 C-12.72832137 -2.83779173 -6.58393652 -3.41389301 0 0 Z " fill="#75B583" transform="translate(191.375,195.75)"/>
<path d="M0 0 C2.62191231 2.18492692 4.37338374 3.79698907 4.99609375 7.23828125 C5.12115458 11.49770603 5.02200198 14.31040024 2.25 17.6875 C-1.594033 21.34848381 -3.91400251 21.53055875 -9.05078125 21.47265625 C-12.62579353 21.0340413 -14.7081253 19.52914608 -17.375 17.1875 C-19.96536348 13.77292996 -19.80608741 10.35467829 -19.375 6.1875 C-17.76179279 3.13392921 -16.34439098 0.94916434 -13.625 -1.1875 C-8.37822281 -2.64493811 -4.71876312 -2.53415056 0 0 Z " fill="#73B481" transform="translate(316.375,173.8125)"/>
<path d="M0 0 C0.66 0 1.32 0 2 0 C12.30585875 20.6117175 -0.47209577 66.07075697 -7.1875 86.75 C-10.85704203 97.57702758 -15.84546413 107.81413804 -21 118 C-21.99 118 -22.98 118 -24 118 C-23.58427734 117.20335937 -23.58427734 117.20335937 -23.16015625 116.390625 C-22.79792969 115.68421875 -22.43570312 114.9778125 -22.0625 114.25 C-21.70285156 113.55390625 -21.34320313 112.8578125 -20.97265625 112.140625 C-20.04441818 110.09775567 -19.46833422 108.18884624 -19 106 C-18.34 106 -17.68 106 -17 106 C-16.86722656 105.28972656 -16.73445313 104.57945312 -16.59765625 103.84765625 C-16.42105469 102.92855469 -16.24445313 102.00945312 -16.0625 101.0625 C-15.88847656 100.14597656 -15.71445312 99.22945313 -15.53515625 98.28515625 C-15 96 -15 96 -14 95 C-13.63239269 92.67182036 -13.29758419 90.3381615 -13 88 C-12.34 88 -11.68 88 -11 88 C-10.87530901 82.42169984 -10.87530901 82.42169984 -12 77 C-11.07960938 76.94005859 -11.07960938 76.94005859 -10.140625 76.87890625 C-7.71150655 76.16178275 -7.71150655 76.16178275 -6.734375 73.33984375 C-4.87848301 66.92523294 -3.78224165 61.64162952 -4 55 C-3.72413953 53.45135757 -3.40821137 51.90956053 -3.0625 50.375 C-0.53047215 38.7444049 -0.77974825 26.49333115 -0.4375 14.625 C-0.39414145 13.19530455 -0.35052285 11.76561697 -0.30664062 10.3359375 C-0.20144498 6.89070994 -0.09971307 3.44539113 0 0 Z " fill="#649F7E" transform="translate(373,197)"/>
<path d="M0 0 C0 6.20682025 -4.93127069 11.61829151 -9 16 C-9.99 16.33 -10.98 16.66 -12 17 C-12.73323796 19.01508358 -12.73323796 19.01508358 -13 21 C-13.66 21 -14.32 21 -15 21 C-15.99 22.98 -16.98 24.96 -18 27 C-18.99 27 -19.98 27 -21 27 C-21.12375 28.1446875 -21.12375 28.1446875 -21.25 29.3125 C-22.16080012 32.57620042 -23.28138365 33.13095126 -26 35 C-26.33 35.99 -26.66 36.98 -27 38 C-29.5625 39.1875 -29.5625 39.1875 -32 40 C-32.16745546 44.94772024 -32.32803118 49.8955972 -32.48217773 54.84375 C-32.53561424 56.5277307 -32.59094488 58.21165239 -32.64819336 59.89550781 C-32.73005852 62.31302158 -32.80515472 64.73066432 -32.87890625 67.1484375 C-32.90594131 67.9036972 -32.93297638 68.65895691 -32.96083069 69.43710327 C-33.16288726 73.34429703 -33.16288726 73.34429703 -32 77 C-33.32 76.34 -34.64 75.68 -36 75 C-36.17400017 69.73486959 -36.3005091 64.47143792 -36.38452148 59.20410156 C-36.4195657 57.41539331 -36.46721801 55.62688329 -36.52807617 53.83886719 C-37.08460575 37.0587988 -37.08460575 37.0587988 -33.40625 32.71875 C-31.9585025 31.45470072 -30.48518546 30.21984324 -29 29 C-27.26627958 27.29861718 -25.57278986 25.56140573 -23.87660217 23.82263184 C-20.64094627 20.51273402 -17.34592832 17.26238834 -14.0625 14 C-12.69703255 12.63955682 -11.33179614 11.27888169 -9.96679688 9.91796875 C-6.64719114 6.6092969 -3.32446727 3.30378678 0 0 Z " fill="#5B9C87" transform="translate(257,344)"/>
<path d="M0 0 C0.99 0.33 1.98 0.66 3 1 C2.34 1.598125 1.68 2.19625 1 2.8125 C-1.3373846 4.87501834 -1.3373846 4.87501834 -1 8 C-2 10.1875 -2 10.1875 -3 12 C-3.495 10.515 -3.495 10.515 -4 9 C-4.61875 9.61875 -5.2375 10.2375 -5.875 10.875 C-7.25 12.25 -8.625 13.625 -10 15 C-10 15.99 -10 16.98 -10 18 C-10.928125 18.268125 -11.85625 18.53625 -12.8125 18.8125 C-15.76240366 19.91148371 -17.05615186 20.62418561 -19 23 C-19.66 22.67 -20.32 22.34 -21 22 C-21.33 23.98 -21.66 25.96 -22 28 C-23.32 27.67 -24.64 27.34 -26 27 C-26 27.66 -26 28.32 -26 29 C-27.98 29.33 -29.96 29.66 -32 30 C-32.66 32.31 -33.32 34.62 -34 37 C-36.31 36.67 -38.62 36.34 -41 36 C-41 34 -41 34 -40 33 C-40.66 32.67 -41.32 32.34 -42 32 C-41.15574463 31.45025513 -41.15574463 31.45025513 -40.29443359 30.8894043 C-18.86973421 17.04618238 -18.86973421 17.04618238 0 0 Z " fill="#94C58A" transform="translate(313,43)"/>
<path d="M0 0 C4.40570447 1.02458243 7.3019099 2.47866637 10.078125 6.15625 C11.86435974 9.72871948 11.84920658 13.15026349 11 17 C9.125 20.0625 9.125 20.0625 6 22 C1.43521718 23.03383583 -2.34750185 22.80121122 -6.578125 20.75 C-10.16593957 18.43528092 -12.61260139 16.58109792 -15 13 C-14.34 12.67 -13.68 12.34 -13 12 C-13.66 11.01 -14.32 10.02 -15 9 C-14.34 8.67 -13.68 8.34 -13 8 C-11.62437146 9.28965176 -10.29233607 10.62689293 -9 12 C-9 12.66 -9 13.32 -9 14 C-8.34 14 -7.68 14 -7 14 C-6.67 15.32 -6.34 16.64 -6 18 C-5.236875 17.62875 -4.47375 17.2575 -3.6875 16.875 C-2.800625 16.58625 -1.91375 16.2975 -1 16 C-0.01 16.66 0.98 17.32 2 18 C4.64632287 17.6878236 4.64632287 17.6878236 7 17 C8.14181469 12.97324226 8.14181469 12.97324226 6.9375 9.1875 C4.35930766 7.6073176 1.9787979 7.33097754 -1 7 C-0.67 4.69 -0.34 2.38 0 0 Z " fill="#5D9A8A" transform="translate(226,464)"/>
<path d="M0 0 C0.49757813 0.41507812 0.99515625 0.83015625 1.5078125 1.2578125 C-1.5170564 4.8681399 -3.60946309 6.48257246 -8.1796875 7.7578125 C-10.50685611 8.37511689 -10.50685611 8.37511689 -12.4921875 9.2578125 C-13.85296785 11.78154151 -13.85296785 11.78154151 -14.4921875 14.2578125 C-17.42135311 15.58066148 -18.37041355 15.29840382 -21.4921875 14.2578125 C-22.2140625 14.8353125 -22.9359375 15.4128125 -23.6796875 16.0078125 C-28.17264406 19.60217774 -33.75930386 21.6026258 -39.4921875 22.2578125 C-40.4821875 21.9278125 -41.4721875 21.5978125 -42.4921875 21.2578125 C-41.92000488 20.94666504 -41.34782227 20.63551758 -40.75830078 20.31494141 C-39.03242152 19.37602726 -37.30686615 18.43651762 -35.58154297 17.49658203 C-33.59462497 16.41492102 -31.60665634 15.33518785 -29.61767578 14.25732422 C-24.7627752 11.61945082 -19.93332316 8.9542422 -15.1640625 6.1640625 C-14.35179199 5.69403809 -13.53952148 5.22401367 -12.70263672 4.73974609 C-11.17051615 3.84955938 -9.64573045 2.94660096 -8.12939453 2.02978516 C-3.04180572 -0.90586691 -3.04180572 -0.90586691 0 0 Z " fill="#95C78D" transform="translate(266.4921875,79.7421875)"/>
<path d="M0 0 C0.33 0 0.66 0 1 0 C1 28.05 1 56.1 1 85 C0.34 85 -0.32 85 -1 85 C-2.26040052 81.14939022 -2.10068494 77.32548415 -2.03759766 73.32568359 C-2.02959641 72.55778 -2.02159515 71.7898764 -2.01335144 70.998703 C-1.98551236 68.46518863 -1.95002229 65.93184867 -1.9140625 63.3984375 C-1.89229014 61.63775008 -1.87084073 59.87705865 -1.84970093 58.11636353 C-1.80423632 54.42941059 -1.75501392 50.74253202 -1.703125 47.05566406 C-1.63680021 42.3231709 -1.57956662 37.59061961 -1.52509499 32.85797691 C-1.48231766 29.22406094 -1.43487792 25.59021749 -1.38599777 21.95637894 C-1.36305948 20.2108299 -1.34155496 18.46526142 -1.32149124 16.71967697 C-1.29278106 14.28486814 -1.25783902 11.85022787 -1.22119141 9.41552734 C-1.2138649 8.69029373 -1.20653839 7.96506012 -1.19898987 7.21784973 C-1.11428287 2.22856574 -1.11428287 2.22856574 0 0 Z " fill="#3F846B" transform="translate(176,318)"/>
<path d="M0 0 C0.99 0.33 1.98 0.66 3 1 C3.33 2.65 3.66 4.3 4 6 C4.99 6 5.98 6 7 6 C7 6.66 7 7.32 7 8 C8.32 7.67 9.64 7.34 11 7 C10.67 8.32 10.34 9.64 10 11 C10.66 11.33 11.32 11.66 12 12 C12 12.66 12 13.32 12 14 C13.65 14 15.3 14 17 14 C17 14.66 17 15.32 17 16 C17.66 16 18.32 16 19 16 C18.67 17.65 18.34 19.3 18 21 C22.95 22.98 22.95 22.98 28 25 C27.67 26.65 27.34 28.3 27 30 C22.18212049 30 19.69550486 29.16332338 16.1875 25.8125 C12.69235713 22.02952183 9.59873753 17.9661774 6.5625 13.8125 C6.12510498 13.21864502 5.68770996 12.62479004 5.23706055 12.01293945 C2.88746189 8.69112516 1.50945025 6.03972519 1 2 C0.67 1.34 0.34 0.68 0 0 Z " fill="#5B9C83" transform="translate(132,354)"/>
<path d="M0 0 C-0.33 1.98 -0.66 3.96 -1 6 C-2.32 5.34 -3.64 4.68 -5 4 C-5.66 5.98 -6.32 7.96 -7 10 C-6.34 10.66 -5.68 11.32 -5 12 C-7.64 12.99 -10.28 13.98 -13 15 C-13 16.98 -13 18.96 -13 21 C-16.01031744 21.93423645 -16.86650268 22.04449911 -20 21 C-24.16711676 23.02724599 -27.51029762 25.99723284 -31 29 C-29.57990311 24.57877495 -27.42659872 22.04070015 -24.16796875 18.76953125 C-23.69434402 18.29303635 -23.2207193 17.81654144 -22.73274231 17.3256073 C-21.73363375 16.32446563 -20.73076006 15.32706886 -19.72436523 14.33325195 C-18.19217957 12.81713051 -16.6766583 11.28567044 -15.16210938 9.75195312 C-14.18585622 8.77768254 -13.20867279 7.80434306 -12.23046875 6.83203125 C-11.34770264 5.95264893 -10.46493652 5.0732666 -9.55541992 4.16723633 C-6.58930365 1.65169088 -3.95703172 0 0 0 Z " fill="#539B7E" transform="translate(293,314)"/>
<path d="M0 0 C0.33 0 0.66 0 1 0 C1.26703477 6.68254514 0.50812956 12.07831739 -1.5 18.4375 C-1.76482178 19.29641846 -2.02964355 20.15533691 -2.30249023 21.0402832 C-6.19669215 33.24196673 -11.47017702 44.98092373 -18 56 C-18.66 55.67 -19.32 55.34 -20 55 C-19.72285156 54.46890625 -19.44570313 53.9378125 -19.16015625 53.390625 C-18.79792969 52.68421875 -18.43570312 51.9778125 -18.0625 51.25 C-17.70285156 50.55390625 -17.34320313 49.8578125 -16.97265625 49.140625 C-16.04441818 47.09775567 -15.46833422 45.18884624 -15 43 C-14.34 43 -13.68 43 -13 43 C-12.86722656 42.28972656 -12.73445313 41.57945312 -12.59765625 40.84765625 C-12.42105469 39.92855469 -12.24445313 39.00945312 -12.0625 38.0625 C-11.88847656 37.14597656 -11.71445312 36.22945313 -11.53515625 35.28515625 C-11 33 -11 33 -10 32 C-9.63239269 29.67182036 -9.29758419 27.3381615 -9 25 C-8.34 25 -7.68 25 -7 25 C-6.87530901 19.42169984 -6.87530901 19.42169984 -8 14 C-7.38640625 13.97035156 -6.7728125 13.94070313 -6.140625 13.91015625 C-3.66208975 13.14729048 -3.66208975 13.14729048 -2.734375 10.05859375 C-2.40953125 8.86363281 -2.0846875 7.66867187 -1.75 6.4375 C-1.24726563 4.64119141 -1.24726563 4.64119141 -0.734375 2.80859375 C-0.37085938 1.41833984 -0.37085938 1.41833984 0 0 Z " fill="#56987A" transform="translate(369,260)"/>
<path d="M0 0 C0.33 0 0.66 0 1 0 C1.94227404 14.52111606 2.11102989 29.01596454 2.125 43.5625 C2.12749756 44.48279999 2.12999512 45.40309998 2.13256836 46.35128784 C2.13847792 49.00636524 2.13695943 51.66132745 2.1328125 54.31640625 C2.13578842 55.51839157 2.13578842 55.51839157 2.13882446 56.74465942 C2.12274922 60.61972981 1.9461775 64.23361221 1 68 C0.34 68 -0.32 68 -1 68 C-1.02564312 60.88737775 -1.04298803 53.77476769 -1.05493164 46.66210938 C-1.05991802 44.24934443 -1.06670953 41.83658243 -1.07543945 39.42382812 C-1.12188767 26.24346389 -1.11561905 13.14091079 0 0 Z " fill="#72A991" transform="translate(223,266)"/>
<path d="M0 0 C0.6875 2.25 0.6875 2.25 1 5 C-0.4375 7.3125 -0.4375 7.3125 -2 9 C-2.33 8.34 -2.66 7.68 -3 7 C-2.67 6.34 -2.34 5.68 -2 5 C-2.66 5 -3.32 5 -4 5 C-4.33 5.66 -4.66 6.32 -5 7 C-7.0625 7.625 -7.0625 7.625 -9 8 C-9 8.66 -9 9.32 -9 10 C-9.763125 10.226875 -10.52625 10.45375 -11.3125 10.6875 C-14.19285659 11.7869739 -14.19285659 11.7869739 -15.5 14.5625 C-17 17 -17 17 -19.5 17.8125 C-22 18 -22 18 -25 18 C-25.66 18.99 -26.32 19.98 -27 21 C-28.98 20.67 -30.96 20.34 -33 20 C-28.50210045 16.18137508 -23.61496427 13.12065877 -18.625 10 C-17.8 9.47921875 -16.975 8.9584375 -16.125 8.421875 C-2.7265625 0 -2.7265625 0 0 0 Z " fill="#80BB7B" transform="translate(224,102)"/>
<path d="M0 0 C0.33 0 0.66 0 1 0 C1.3125 2.25 1.3125 2.25 1 5 C-2.52173216 8.62531251 -4.99551533 9.33183844 -10 11 C-10 19.91 -10 28.82 -10 38 C-11.32 38.66 -12.64 39.32 -14 40 C-14.86625 40.556875 -15.7325 41.11375 -16.625 41.6875 C-17.40875 42.120625 -18.1925 42.55375 -19 43 C-19.66 42.67 -20.32 42.34 -21 42 C-20.57847656 41.52949219 -20.15695312 41.05898437 -19.72265625 40.57421875 C-19.17480469 39.95160156 -18.62695312 39.32898438 -18.0625 38.6875 C-17.51722656 38.07261719 -16.97195313 37.45773438 -16.41015625 36.82421875 C-13.95011687 33.64184093 -13.92090126 30.99933268 -14.0703125 27.140625 C-14.31513291 11.56343001 -14.31513291 11.56343001 -10.55859375 7.09765625 C-7.76147469 5.43105467 -5.0052292 4.23045153 -2 3 C-1.34 2.01 -0.68 1.02 0 0 Z " fill="#6EA984" transform="translate(329,197)"/>
<path d="M0 0 C0 0.99 0 1.98 0 3 C-0.66 3.66 -1.32 4.32 -2 5 C-2 5.99 -2 6.98 -2 8 C-2.45345268 9.41164137 -2.95715349 10.80776511 -3.5 12.1875 C-3.7784375 12.90292969 -4.056875 13.61835938 -4.34375 14.35546875 C-4.5603125 14.89816406 -4.776875 15.44085938 -5 16 C-5.66 16 -6.32 16 -7 16 C-6.67 17.32 -6.34 18.64 -6 20 C-7.32 19.67 -8.64 19.34 -10 19 C-11.89213369 21.38573379 -13.02391783 23.07175348 -14 26 C-14.99 26 -15.98 26 -17 26 C-17.33 27.65 -17.66 29.3 -18 31 C-18.99 31 -19.98 31 -21 31 C-21 22.23402399 -7.64525893 7.77095752 -1.734375 1.65625 C-1.16203125 1.1096875 -0.5896875 0.563125 0 0 Z M0 4 C2 5 2 5 2 5 Z " fill="#74B078" transform="translate(149,156)"/>
<path d="M0 0 C1.32 0.33 2.64 0.66 4 1 C4 2.66666667 4 4.33333333 4 6 C4.85895582 11.14362958 5.79132789 15.76455281 9 20 C9.99 20.66 10.98 21.32 12 22 C11.67 23.65 11.34 25.3 11 27 C11.99 27 12.98 27 14 27 C14.45375 28.2375 14.9075 29.475 15.375 30.75 C16.4384007 33.59245495 17.55192483 36.32663046 19 39 C8.55762874 33.54636433 4.66855465 20.35930124 0.87109375 9.88671875 C-0.15423021 6.48889631 -0.14117864 3.52946603 0 0 Z " fill="#4A8F7B" transform="translate(195,439)"/>
<path d="M0 0 C-0.69994213 4.01802893 -2.36884369 5.37122644 -5.66137695 7.75634766 C-6.30937256 8.20800293 -6.95736816 8.6596582 -7.625 9.125 C-8.28781982 9.59856934 -8.95063965 10.07213867 -9.63354492 10.56005859 C-31.62058234 26.16042212 -31.62058234 26.16042212 -39 26 C-39.33 25.01 -39.66 24.02 -40 23 C-38.68 23.33 -37.36 23.66 -36 24 C-35.67 23.34 -35.34 22.68 -35 22 C-34.13375 21.87625 -34.13375 21.87625 -33.25 21.75 C-29.76984429 20.5899481 -28.2678829 17.79124049 -26 15 C-23 14 -23 14 -21.18359375 13.671875 C-18.09209215 12.72064374 -15.743503 11.04860479 -13.0625 9.25 C-12.04285156 8.57453125 -11.02320313 7.8990625 -9.97265625 7.203125 C-6.91252535 5.04966345 -6.91252535 5.04966345 -4.24609375 2.234375 C-2 0 -2 0 0 0 Z " fill="#5C9886" transform="translate(295,378)"/>
<path d="M0 0 C2.98608227 4.4791234 4.91453312 9.38767071 7.0625 14.3125 C7.52205078 15.34568359 7.98160156 16.37886719 8.45507812 17.44335938 C8.89400391 18.44818359 9.33292969 19.45300781 9.78515625 20.48828125 C10.18613525 21.40134033 10.58711426 22.31439941 11.00024414 23.25512695 C12.06044043 26.16594182 12.58281618 28.93605105 13 32 C12.01 31.67 11.02 31.34 10 31 C9.8453125 29.824375 9.8453125 29.824375 9.6875 28.625 C9.22404978 25.66954819 9.22404978 25.66954819 6 24 C5.05078125 20.9609375 5.05078125 20.9609375 4.3125 17.375 C4.06113281 16.18648437 3.80976563 14.99796875 3.55078125 13.7734375 C3.36902344 12.85820313 3.18726563 11.94296875 3 11 C0.69 10.67 -1.62 10.34 -4 10 C-4 9.34 -4 8.68 -4 8 C-3.34 8 -2.68 8 -2 8 C-2 7.34 -2 6.68 -2 6 C-2.66 5.67 -3.32 5.34 -4 5 C-3.67 4.01 -3.34 3.02 -3 2 C-2.34 2 -1.68 2 -1 2 C-0.67 1.34 -0.34 0.68 0 0 Z " fill="#79B079" transform="translate(348,93)"/>
<path d="M0 0 C0 6.20682025 -4.93127069 11.61829151 -9 16 C-9.99 16.33 -10.98 16.66 -12 17 C-12.73323796 19.01508358 -12.73323796 19.01508358 -13 21 C-19.75 23.125 -19.75 23.125 -22 22 C-14.74 14.74 -7.48 7.48 0 0 Z " fill="#549D87" transform="translate(257,344)"/>
<path d="M0 0 C0.94875 0.350625 1.8975 0.70125 2.875 1.0625 C3.205 3.3725 3.535 5.6825 3.875 8.0625 C4.638125 7.8975 5.40125 7.7325 6.1875 7.5625 C8.875 7.0625 8.875 7.0625 11.875 7.0625 C11.875 10.0325 11.875 13.0025 11.875 16.0625 C7.71411294 13.98205647 4.64996397 11.59604106 1.125 8.625 C0.52300781 8.13451172 -0.07898438 7.64402344 -0.69921875 7.13867188 C-2.23483123 5.84854847 -3.6872092 4.46081388 -5.125 3.0625 C-5.125 2.0725 -5.125 1.0825 -5.125 0.0625 C-3.125 -0.9375 -3.125 -0.9375 0 0 Z " fill="#5A9A86" transform="translate(163.125,385.9375)"/>
<path d="M0 0 C3.8331077 5.74966155 3.25900441 12.42519919 2 19 C3.98 19 5.96 19 8 19 C8 18.34 8 17.68 8 17 C8.66 17.33 9.32 17.66 10 18 C7.98449384 22.56140868 5.76882051 25.71436161 2 29 C1.34 29 0.68 29 0 29 C0 19.43 0 9.86 0 0 Z " fill="#5A9A81" transform="translate(254,301)"/>
<path d="M0 0 C1.65 0 3.3 0 5 0 C5 10.56 5 21.12 5 32 C4.34 32 3.68 32 3 32 C2.0178006 28.72373625 1.88419086 25.77211881 1.90234375 22.359375 C1.90556641 21.28945312 1.90878906 20.21953125 1.91210938 19.1171875 C1.92048828 18.00601563 1.92886719 16.89484375 1.9375 15.75 C1.94201172 14.62335938 1.94652344 13.49671875 1.95117188 12.3359375 C1.96294603 9.55723783 1.9793916 6.77864591 2 4 C1.34 3.67 0.68 3.34 0 3 C0.66 3 1.32 3 2 3 C2 2.34 2 1.68 2 1 C1.34 0.67 0.68 0.34 0 0 Z " fill="#76B081" transform="translate(235,172)"/>
<path d="M0 0 C-3 2 -3 2 -5.8125 3.3125 C-11.76407507 6.46333386 -15.38391379 9.75046072 -18 16 C-18.33 15.34 -18.66 14.68 -19 14 C-19.66 14 -20.32 14 -21 14 C-19.69984448 5.83981337 -19.69984448 5.83981337 -17.4375 3.125 C-11.51326087 0.39073578 -6.55893544 -1.84995615 0 0 Z " fill="#71B07C" transform="translate(179,182)"/>
<path d="M0 0 C4.30348869 3.95392733 7.31358476 8.22728909 10.375 13.1875 C10.83777344 13.91130859 11.30054688 14.63511719 11.77734375 15.38085938 C12.20917969 16.07373047 12.64101563 16.76660156 13.0859375 17.48046875 C13.4782959 18.10848389 13.8706543 18.73649902 14.27490234 19.38354492 C14.51418457 19.9169751 14.7534668 20.45040527 15 21 C14 23 14 23 12 24 C10 21 10 21 10 18 C9.01 18 8.02 18 7 18 C7 16.35 7 14.7 7 13 C6.34 13 5.68 13 5 13 C4.731875 12.401875 4.46375 11.80375 4.1875 11.1875 C3.12703272 8.9700287 3.12703272 8.9700287 1.4375 7.5 C-0.28983327 5.69756529 -0.68304524 4.45639937 -1 2 C-0.67 1.34 -0.34 0.68 0 0 Z " fill="#92C38C" transform="translate(329,62)"/>
<path d="M0 0 C-2.4547847 5.52326557 -5.64186529 9.17209557 -11 12 C-11.66 11.34 -12.32 10.68 -13 10 C-12.625 7.375 -12.625 7.375 -12 5 C-11.01 4.67 -10.02 4.34 -9 4 C-8.30062468 2.68352881 -7.63270867 1.34977849 -7 0 C-4.3333581 -1.33332095 -2.83319697 -0.67102033 0 0 Z " fill="#60A17F" transform="translate(270,258)"/>
<path d="M0 0 C0.66 0 1.32 0 2 0 C3.07491629 4.27433044 3.04858488 8.33858871 2.87890625 12.70703125 C2.85529526 13.43242599 2.83168427 14.15782074 2.80735779 14.90519714 C2.7311668 17.20785295 2.64695297 19.51013389 2.5625 21.8125 C2.50923459 23.37953933 2.45649454 24.94659661 2.40429688 26.51367188 C2.27561258 30.34268248 2.13973538 34.17137741 2 38 C1.67 38 1.34 38 1 38 C-0.15439979 31.67025734 -0.38306393 25.41842155 -0.625 19 C-0.6765625 17.83726562 -0.728125 16.67453125 -0.78125 15.4765625 C-0.82507813 14.34992188 -0.86890625 13.22328125 -0.9140625 12.0625 C-0.9548291 11.04285156 -0.9955957 10.02320313 -1.03759766 8.97265625 C-0.99854197 5.88472104 -0.58391276 3.02844803 0 0 Z " fill="#4E9376" transform="translate(238,291)"/>
<path d="M0 0 C0.99 0 1.98 0 3 0 C3 1.32 3 2.64 3 4 C1.50390625 5.45703125 1.50390625 5.45703125 -0.4375 6.8125 C-3.56078582 9.27460636 -3.94121727 9.7570314 -4.9375 13.875 C-4.958125 14.90625 -4.97875 15.9375 -5 17 C-5.33 17 -5.66 17 -6 17 C-6.33 19.97 -6.66 22.94 -7 26 C-7.33 26 -7.66 26 -8 26 C-9.07218765 11.02341055 -9.07218765 11.02341055 -6.4765625 6.125 C-4.75011858 4.20829491 -3.0437414 2.56833872 -1 1 C-0.67 0.67 -0.34 0.34 0 0 Z " fill="#6A9F89" transform="translate(261,286)"/>
<path d="M0 0 C0.33 0 0.66 0 1 0 C1 8.25 1 16.5 1 25 C0.01 25 -0.98 25 -2 25 C-2.02720824 22.31243045 -2.0469388 19.62514202 -2.0625 16.9375 C-2.07087891 16.18533203 -2.07925781 15.43316406 -2.08789062 14.65820312 C-2.10807096 9.99654679 -1.8532507 5.58846007 -1 1 C-0.67 0.67 -0.34 0.34 0 0 Z " fill="#6AA290" transform="translate(223,337)"/>
<path d="M0 0 C0.33 0 0.66 0 1 0 C1.04898438 0.76183594 1.09796875 1.52367187 1.1484375 2.30859375 C1.50899885 7.28807039 1.91206139 12.08574556 3.125 16.9375 C3.94847804 20.26774205 4.07767595 22.65920455 3 26 C2.01 26 1.02 26 0 26 C-0.83866595 17.68822141 -1.44049018 9.35635784 -1 1 C-0.67 0.67 -0.34 0.34 0 0 Z " fill="#72B285" transform="translate(105,260)"/>
<path d="M0 0 C0.99 0.33 1.98 0.66 3 1 C2.01 1.8971875 2.01 1.8971875 1 2.8125 C-1.3373846 4.87501834 -1.3373846 4.87501834 -1 8 C-2 10.1875 -2 10.1875 -3 12 C-3.33 11.01 -3.66 10.02 -4 9 C-4.7115625 9.8971875 -4.7115625 9.8971875 -5.4375 10.8125 C-8.92683848 13.79120358 -12.6364811 14.7692639 -17 16 C-12.92118485 11.78522435 -8.58309472 7.89196605 -4.20703125 3.98828125 C-2.7713649 2.69491104 -1.3663719 1.3663719 0 0 Z " fill="#94C28A" transform="translate(313,43)"/>
<path d="M0 0 C0.33 0 0.66 0 1 0 C1.16856005 4.85613474 1.32901217 9.71244709 1.48217773 14.5690918 C1.53532451 16.21890344 1.5906298 17.8686471 1.64819336 19.51831055 C1.7308734 21.89877669 1.80561351 24.27938476 1.87890625 26.66015625 C1.90594131 27.38960953 1.93297638 28.11906281 1.96083069 28.87062073 C2.08930708 33.34701391 1.98488025 37.60211357 1 42 C0.01 42.66 -0.98 43.32 -2 44 C-2.495 42.515 -2.495 42.515 -3 41 C-2.01 41 -1.02 41 0 41 C-0.15597656 40.33613281 -0.31195313 39.67226563 -0.47265625 38.98828125 C-0.66730469 38.10527344 -0.86195313 37.22226562 -1.0625 36.3125 C-1.25972656 35.44238281 -1.45695313 34.57226562 -1.66015625 33.67578125 C-2 31 -2 31 -1.54101562 28.71875 C-0.94436534 25.72042078 -0.78893045 22.87898302 -0.68359375 19.82421875 C-0.64169922 18.66728516 -0.59980469 17.51035156 -0.55664062 16.31835938 C-0.51732422 15.12017578 -0.47800781 13.92199219 -0.4375 12.6875 C-0.39431641 11.46998047 -0.35113281 10.25246094 -0.30664062 8.99804688 C-0.20078504 5.9988053 -0.09870274 2.99948409 0 0 Z " fill="#86B09F" transform="translate(240,303)"/>
<path d="M0 0 C0.99 0.33 1.98 0.66 3 1 C-3.27 7.27 -9.54 13.54 -16 20 C-16.33 19.34 -16.66 18.68 -17 18 C-11.65611545 11.66519646 -5.91166188 5.80460966 0 0 Z " fill="#43856D" transform="translate(279,323)"/>
<path d="M0 0 C-3.9419417 4.88049925 -8.11950075 9.0580583 -13 13 C-13.33 12.34 -13.66 11.68 -14 11 C-13.34 11 -12.68 11 -12 11 C-11.67 9.35 -11.34 7.7 -11 6 C-10.34 6 -9.68 6 -9 6 C-9 5.34 -9 4.68 -9 4 C-9.66 4 -10.32 4 -11 4 C-8.74499851 -0.51000297 -4.55950767 -0.20725035 0 0 Z " fill="#67A38A" transform="translate(275,310)"/>
<path d="M0 0 C0.99 0.33 1.98 0.66 3 1 C2.40266451 3.04367572 1.79680343 5.08486043 1.1875 7.125 C0.68283203 8.83042969 0.68283203 8.83042969 0.16796875 10.5703125 C-2.84694578 19.42347289 -2.84694578 19.42347289 -6 21 C-4.78880323 13.65313537 -2.71328887 6.92810652 0 0 Z " fill="#7DB186" transform="translate(115,209)"/>
<path d="M0 0 C0.33 0 0.66 0 1 0 C1 9.57 1 19.14 1 29 C0.01 29.33 -0.98 29.66 -2 30 C-1.86001598 26.31225385 -1.71195796 22.62487337 -1.5625 18.9375 C-1.52318359 17.89916016 -1.48386719 16.86082031 -1.44335938 15.79101562 C-1.22333656 10.45969359 -0.8883816 5.26310107 0 0 Z " fill="#5B9A6F" transform="translate(254,192)"/>
<path d="M0 0 C1.32 0.66 2.64 1.32 4 2 C4 3.32 4 4.64 4 6 C3.34 6 2.68 6 2 6 C1.67 6.99 1.34 7.98 1 9 C-1.0625 10.6875 -1.0625 10.6875 -3 12 C-3.66 11.67 -4.32 11.34 -5 11 C-3.77472971 6.94718288 -2.30119506 3.55639236 0 0 Z " fill="#76B47C" transform="translate(124,191)"/>
<path d="M0 0 C0.99 0.33 1.98 0.66 3 1 C4.1875 3.5625 4.1875 3.5625 5 6 C5.66 6 6.32 6 7 6 C7.99 7.98 8.98 9.96 10 12 C4.96014269 11.55530671 2.62365012 9.28656638 -1 6 C-0.34 5.34 0.32 4.68 1 4 C0.34 3.01 -0.32 2.02 -1 1 C-0.67 0.67 -0.34 0.34 0 0 Z " fill="#60A18F" transform="translate(212,472)"/>
<path d="M0 0 C0.66 0 1.32 0 2 0 C2.66 0.99 3.32 1.98 4 3 C4.515625 3.515625 5.03125 4.03125 5.5625 4.5625 C7 6 7 6 8 8 C7.01 8.495 7.01 8.495 6 9 C7.32 11.64 8.64 14.28 10 17 C9.34 17 8.68 17 8 17 C8 16.34 8 15.68 8 15 C7.01 14.67 6.02 14.34 5 14 C3.61328125 11.85546875 3.61328125 11.85546875 2.3125 9.1875 C1.87550781 8.31480469 1.43851562 7.44210937 0.98828125 6.54296875 C0 4 0 4 0 0 Z " fill="#56967A" transform="translate(120,333)"/>
<path d="M0 0 C3.68646141 1.45855647 5.16143971 3.30229045 7.25 6.625 C8.03117188 7.85089844 8.03117188 7.85089844 8.828125 9.1015625 C9.21484375 9.72804688 9.6015625 10.35453125 10 11 C9.34 11 8.68 11 8 11 C7.67 11.99 7.34 12.98 7 14 C5.68 13.01 4.36 12.02 3 11 C3.66 10.01 4.32 9.02 5 8 C4.34 8 3.68 8 3 8 C3 7.34 3 6.68 3 6 C2.34 6 1.68 6 1 6 C0.67 4.02 0.34 2.04 0 0 Z " fill="#5A9D8A" transform="translate(216,450)"/>
<path d="M0 0 C2.10837598 3.16256397 2.97900679 5.80800373 4.0625 9.4375 C4.57490234 11.13712891 4.57490234 11.13712891 5.09765625 12.87109375 C5.78099996 15.24061025 6.42844748 17.60183634 7 20 C6.01 19.67 5.02 19.34 4 19 C2.8125 15.9375 2.8125 15.9375 2 13 C1.01 13 0.02 13 -1 13 C-1.02686553 11.02090602 -1.04633375 9.04171029 -1.0625 7.0625 C-1.07410156 5.96035156 -1.08570313 4.85820312 -1.09765625 3.72265625 C-1 1 -1 1 0 0 Z " fill="#468C7A" transform="translate(209,427)"/>
<path d="M0 0 C2.67394151 2.07230467 4.69933375 3.74182739 5.5078125 7.125 C5.72277126 11.3668528 5.30633555 14.19487024 2.625 17.5625 C0 20 0 20 -2 20 C-1.34 18.68 -0.68 17.36 0 16 C0.66 16 1.32 16 2 16 C2.05422947 14.5629191 2.09289723 13.12524538 2.125 11.6875 C2.14820313 10.88699219 2.17140625 10.08648437 2.1953125 9.26171875 C2.15817322 6.71611424 2.15817322 6.71611424 0 4 C0 2.68 0 1.36 0 0 Z " fill="#84B393" transform="translate(316,174)"/>
<path d="M0 0 C0.6875 2.25 0.6875 2.25 1 5 C-0.4375 7.3125 -0.4375 7.3125 -2 9 C-2.33 8.34 -2.66 7.68 -3 7 C-2.67 6.34 -2.34 5.68 -2 5 C-2.66 5 -3.32 5 -4 5 C-4.33 5.66 -4.66 6.32 -5 7 C-8 8 -8 8 -10.1875 7.0625 C-10.785625 6.711875 -11.38375 6.36125 -12 6 C-10.37829621 4.99466333 -8.75252763 3.99588093 -7.125 3 C-5.76761719 2.1646875 -5.76761719 2.1646875 -4.3828125 1.3125 C-2 0 -2 0 0 0 Z " fill="#87C07F" transform="translate(224,102)"/>
<path d="M0 0 C0.33 1.98 0.66 3.96 1 6 C-0.546875 6.433125 -0.546875 6.433125 -2.125 6.875 C-4.57067146 7.56455037 -6.91443717 8.3278171 -9.3125 9.1875 C-12 10 -12 10 -14 9 C-13.38511719 8.60167969 -12.77023437 8.20335937 -12.13671875 7.79296875 C-11.32847656 7.26316406 -10.52023437 6.73335937 -9.6875 6.1875 C-8.88699219 5.66542969 -8.08648437 5.14335937 -7.26171875 4.60546875 C-5.00022173 3.10018405 -5.00022173 3.10018405 -3.33203125 1.30078125 C-2 0 -2 0 0 0 Z " fill="#79B783" transform="translate(271,161)"/>
<path d="M0 0 C0 0.99 0 1.98 0 3 C-0.66 3.66 -1.32 4.32 -2 5 C-2 5.99 -2 6.98 -2 8 C-2.3062434 9.33981486 -2.63451555 10.67511887 -3 12 C-5.31 12.33 -7.62 12.66 -10 13 C-7.25180579 7.71501113 -4.35924798 4.06202653 0 0 Z M0 4 C2 5 2 5 2 5 Z " fill="#89BD8B" transform="translate(149,156)"/>
<path d="M0 0 C0.66 0 1.32 0 2 0 C2.39169887 2.66355234 2.40564529 4.39224373 0.88671875 6.66796875 C-0.36389317 8.1510888 -1.67864514 9.57954352 -3 11 C-4.32 10.67 -5.64 10.34 -7 10 C-6.25 7.5625 -6.25 7.5625 -5 5 C-2.875 4.1875 -2.875 4.1875 -1 4 C-0.67 2.68 -0.34 1.36 0 0 Z " fill="#599A83" transform="translate(335,334)"/>
<path d="M0 0 C2.475 0.99 2.475 0.99 5 2 C4.67 4.31 4.34 6.62 4 9 C4.66 9 5.32 9 6 9 C6 9.66 6 10.32 6 11 C5.34 11 4.68 11 4 11 C3.67 11.66 3.34 12.32 3 13 C2.10565843 11.59546357 1.23506808 10.17578131 0.375 8.75 C-0.11226563 7.96109375 -0.59953125 7.1721875 -1.1015625 6.359375 C-2 4 -2 4 -1.1484375 1.703125 C-0.76945312 1.14109375 -0.39046875 0.5790625 0 0 Z " fill="#7EB87F" transform="translate(267,128)"/>
<path d="M0 0 C4.37775793 3.78616902 6.76192122 7.29108119 8 13 C8.2199663 16.35209511 8.18550064 19.64724766 8 23 C7.34 23 6.68 23 6 23 C5.85304687 21.58847656 5.85304687 21.58847656 5.703125 20.1484375 C4.61685036 10.84798577 4.61685036 10.84798577 0 3 C0 2.01 0 1.02 0 0 Z " fill="#61986E" transform="translate(203,188)"/>
<path d="M0 0 C-3.81697488 2.54464992 -7.64422959 4.54807653 -12 6 C-14.1875 5.5625 -14.1875 5.5625 -16 5 C-15 2 -15 2 -13.14453125 1.015625 C-8.37635013 -0.549808 -4.9935362 -1.40843329 0 0 Z " fill="#77B882" transform="translate(179,182)"/>
<path d="M0 0 C0 0.66 0 1.32 0 2 C0.99 2.66 1.98 3.32 3 4 C2.443125 3.98839844 1.88625 3.97679687 1.3125 3.96484375 C-2.6811817 3.91762116 -6.48634646 4.00876504 -10.4375 4.625 C-11.613125 4.74875 -12.78875 4.8725 -14 5 C-14.66 4.34 -15.32 3.68 -16 3 C-10.71486893 0.66832453 -5.76330297 -0.16950891 0 0 Z " fill="#74B17B" transform="translate(313,156)"/>
<path d="M0 0 C0.33 0 0.66 0 1 0 C1 2.31 1 4.62 1 7 C1.33 7 1.66 7 2 7 C2.125 13.75 2.125 13.75 1 16 C0.01 16 -0.98 16 -2 16 C-2.05402274 13.89611431 -2.09280256 11.79183286 -2.125 9.6875 C-2.14820313 8.51574219 -2.17140625 7.34398437 -2.1953125 6.13671875 C-2 3 -2 3 0 0 Z " fill="#559A82" transform="translate(287,281)"/>
<path d="M0 0 C0.99 0.33 1.98 0.66 3 1 C3 7.6 3 14.2 3 21 C1.28632943 17.57265885 0.74642947 16.42144826 0.5859375 12.890625 C0.54726563 12.13652344 0.50859375 11.38242188 0.46875 10.60546875 C0.4378125 9.82816406 0.406875 9.05085937 0.375 8.25 C0.33632813 7.45722656 0.29765625 6.66445312 0.2578125 5.84765625 C0.163892 3.89880584 0.08087178 1.94943549 0 0 Z " fill="#64A276" transform="translate(371,175)"/>
<path d="M0 0 C0.33 0 0.66 0 1 0 C1 10.23 1 20.46 1 31 C0.34 31 -0.32 31 -1 31 C-1.87890625 24.84765625 -1.87890625 24.84765625 -2 23 C-1.67 22.67 -1.34 22.34 -1 22 C-0.84285346 20.36743242 -0.74914586 18.72864662 -0.68359375 17.08984375 C-0.62075195 15.60581055 -0.62075195 15.60581055 -0.55664062 14.09179688 C-0.49766602 12.53041992 -0.49766602 12.53041992 -0.4375 10.9375 C-0.39431641 9.89271484 -0.35113281 8.84792969 -0.30664062 7.77148438 C-0.20018775 5.18113116 -0.0981724 2.59067814 0 0 Z " fill="#44957C" transform="translate(192,352)"/>
<path d="M0 0 C1.625 1 1.625 1 3 3 C2.14713418 8.20248148 0.55110098 12.36163458 -2 17 C-2.33 17 -2.66 17 -3 17 C-3.33 13.7 -3.66 10.4 -4 7 C-2.68 6.34 -1.36 5.68 0 5 C0 3.35 0 1.7 0 0 Z " fill="#559D89" transform="translate(197,425)"/>
<path d="M0 0 C1.17949219 0.11988281 2.35898437 0.23976563 3.57421875 0.36328125 C4.92966797 0.52376953 4.92966797 0.52376953 6.3125 0.6875 C6.3125 1.6775 6.3125 2.6675 6.3125 3.6875 C4.9925 4.0175 3.6725 4.3475 2.3125 4.6875 C2.3125 4.0275 2.3125 3.3675 2.3125 2.6875 C1.26449219 2.81318359 1.26449219 2.81318359 0.1953125 2.94140625 C-0.71476562 3.04324219 -1.62484375 3.14507812 -2.5625 3.25 C-3.46742188 3.35441406 -4.37234375 3.45882813 -5.3046875 3.56640625 C-7.6875 3.6875 -7.6875 3.6875 -9.6875 2.6875 C-6.96946898 -1.1295183 -4.38225337 -0.47727512 0 0 Z " fill="#5A967F" transform="translate(304.6875,306.3125)"/>
<path d="M0 0 C1.84619835 1.03998511 3.67673494 2.107814 5.5 3.1875 C6.5209375 3.77917969 7.541875 4.37085938 8.59375 4.98046875 C11 7 11 7 11.34375 9.73828125 C11.2303125 10.48464844 11.116875 11.23101562 11 12 C10.34 12 9.68 12 9 12 C8.67 11.01 8.34 10.02 8 9 C5.91302442 7.3258231 5.91302442 7.3258231 3.4375 5.8125 C2.61121094 5.28269531 1.78492188 4.75289062 0.93359375 4.20703125 C0.29550781 3.80871094 -0.34257812 3.41039062 -1 3 C-0.67 2.01 -0.34 1.02 0 0 Z " fill="#78AB87" transform="translate(166,223)"/>
<path d="M0 0 C0.99 0.33 1.98 0.66 3 1 C2.2884375 2.546875 2.2884375 2.546875 1.5625 4.125 C0.15477612 7.38534162 -0.56835498 10.46051083 -1 14 C-1.99 14.33 -2.98 14.66 -4 15 C-5.46726798 11.18510326 -4.43336419 8.70988378 -3 5 C-2.34 5 -1.68 5 -1 5 C-0.67 3.35 -0.34 1.7 0 0 Z " fill="#80B97B" transform="translate(223,133)"/>
<path d="M0 0 C0.33 0.99 0.66 1.98 1 3 C0.505 3.45375 0.01 3.9075 -0.5 4.375 C-2.22609337 5.87635519 -2.22609337 5.87635519 -2 8 C-7.75 10 -7.75 10 -10 10 C-10.66 9.67 -11.32 9.34 -12 9 C-8.04 6.03 -4.08 3.06 0 0 Z " fill="#96C493" transform="translate(182,127)"/>
<path d="M0 0 C0.66 0 1.32 0 2 0 C1.61328982 2.35084834 1.32651409 3.67969817 -0.39868164 5.37207031 C-0.97996826 5.77006836 -1.56125488 6.16806641 -2.16015625 6.578125 C-2.78857422 7.01640625 -3.41699219 7.4546875 -4.06445312 7.90625 C-5.05348633 8.57140625 -5.05348633 8.57140625 -6.0625 9.25 C-6.72572266 9.70890625 -7.38894531 10.1678125 -8.07226562 10.640625 C-9.70802307 11.77035676 -11.35314234 12.88651173 -13 14 C-13.66 13.34 -14.32 12.68 -15 12 C-14.00097656 11.30132812 -13.00195312 10.60265625 -11.97265625 9.8828125 C-10.669112 8.96376691 -9.36573523 8.04448374 -8.0625 7.125 C-7.0734668 6.43470703 -7.0734668 6.43470703 -6.06445312 5.73046875 C-2.48857615 3.37103753 -2.48857615 3.37103753 0 0 Z " fill="#45816D" transform="translate(293,378)"/>
<path d="M0 0 C1.32 0.33 2.64 0.66 4 1 C3.67 1.66 3.34 2.32 3 3 C3.66 3 4.32 3 5 3 C5 4.32 5 5.64 5 7 C0.545 7.495 0.545 7.495 -4 8 C-2.68 5.36 -1.36 2.72 0 0 Z " fill="#4D967A" transform="translate(258,344)"/>
<path d="M0 0 C0.66 0.33 1.32 0.66 2 1 C5.46601942 11.60194175 5.46601942 11.60194175 4 16 C4 15.34 4 14.68 4 14 C3.34 14 2.68 14 2 14 C-0.24281523 8.79666866 -1.55577239 5.65735415 0 0 Z " fill="#6BA185" transform="translate(114,314)"/>
<path d="M0 0 C0.33 0 0.66 0 1 0 C0.50839669 5.43533241 -0.87793327 9.2029005 -3.5625 13.9375 C-4.20316406 15.08089844 -4.84382813 16.22429687 -5.50390625 17.40234375 C-5.99761719 18.25957031 -6.49132812 19.11679687 -7 20 C-7.66 19.67 -8.32 19.34 -9 19 C-8.72285156 18.46890625 -8.44570313 17.9378125 -8.16015625 17.390625 C-7.79792969 16.68421875 -7.43570312 15.9778125 -7.0625 15.25 C-6.70285156 14.55390625 -6.34320313 13.8578125 -5.97265625 13.140625 C-5.04441818 11.09775567 -4.46833422 9.18884624 -4 7 C-3.34 7 -2.68 7 -2 7 C-1.34 4.69 -0.68 2.38 0 0 Z " fill="#49846B" transform="translate(358,296)"/>
<path d="M0 0 C1.32 0 2.64 0 4 0 C4.625 1.875 4.625 1.875 5 4 C4.34 4.66 3.68 5.32 3 6 C2.48050781 5.72285156 1.96101563 5.44570312 1.42578125 5.16015625 C-2.36216005 3.19266733 -5.70699113 1.53662611 -10 1 C-6.10995735 -1.59336176 -4.49074078 -0.78784926 0 0 Z " fill="#97C096" transform="translate(259,124)"/>
<path d="M0 0 C0.33 0.99 0.66 1.98 1 3 C1.66 3 2.32 3 3 3 C3.33 3.99 3.66 4.98 4 6 C3.67 6.66 3.34 7.32 3 8 C3.598125 8.12375 4.19625 8.2475 4.8125 8.375 C8.38207552 9.39487872 11.07820543 11.78346619 14 14 C8.74587663 13.58791189 5.71663943 12.82282913 2 9 C0.22371132 5.616593 0 3.91065931 0 0 Z " fill="#99BF9C" transform="translate(234,147)"/>
<path d="M0 0 C0.33 0 0.66 0 1 0 C1.3125 2.25 1.3125 2.25 1 5 C-3.4078065 9.17581668 -6.02156209 10.12996604 -12 10 C-10.09329491 8.55090413 -8.17826377 7.12377266 -6.2109375 5.7578125 C-5.58445312 5.32210937 -4.95796875 4.88640625 -4.3125 4.4375 C-3.71050781 4.02371094 -3.10851562 3.60992187 -2.48828125 3.18359375 C-0.85004921 2.0514968 -0.85004921 2.0514968 0 0 Z " fill="#86B695" transform="translate(329,197)"/>
<path d="M0 0 C2.1640625 -0.29296875 2.1640625 -0.29296875 4.625 -0.1875 C5.44226563 -0.16042969 6.25953125 -0.13335937 7.1015625 -0.10546875 C8.04128906 -0.05326172 8.04128906 -0.05326172 9 0 C6.03716687 2.38672669 3.05729491 4.7353371 0 7 C-0.66 5.68 -1.32 4.36 -2 3 C-1.34 2.01 -0.68 1.02 0 0 Z " fill="#80B988" transform="translate(290,161)"/>
<path d="M0 0 C1.76462683 3.08809695 2 4.23312136 2 8 C2.33 8.99 2.66 9.98 3 11 C0.69 10.67 -1.62 10.34 -4 10 C-4 9.34 -4 8.68 -4 8 C-3.34 8 -2.68 8 -2 8 C-2 7.34 -2 6.68 -2 6 C-2.66 5.67 -3.32 5.34 -4 5 C-3.67 4.01 -3.34 3.02 -3 2 C-2.34 2 -1.68 2 -1 2 C-0.67 1.34 -0.34 0.68 0 0 Z " fill="#83C280" transform="translate(348,93)"/>
<path d="M0 0 C2 2 2 2 2 4 C1.071875 4.268125 0.14375 4.53625 -0.8125 4.8125 C-3.76240366 5.91148371 -5.05615186 6.62418561 -7 9 C-8 6 -8 6 -7.4375 3.9375 C-5.41381358 1.20992266 -3.21178058 0.8378558 0 0 Z " fill="#83C177" transform="translate(301,57)"/>
<path d="M0 0 C0.99 0.33 1.98 0.66 3 1 C3.33 2.65 3.66 4.3 4 6 C4.99 6 5.98 6 7 6 C7 6.66 7 7.32 7 8 C8.32 7.67 9.64 7.34 11 7 C10.67 8.32 10.34 9.64 10 11 C10.66 11.33 11.32 11.66 12 12 C10.68 12 9.36 12 8 12 C7.67 11.34 7.34 10.68 7 10 C4.97536745 9.34786708 4.97536745 9.34786708 3 9 C2.690625 7.88625 2.38125 6.7725 2.0625 5.625 C1.17673517 2.2054845 1.17673517 2.2054845 0 0 Z " fill="#539B80" transform="translate(132,354)"/>
<path d="M0 0 C0.99 0.33 1.98 0.66 3 1 C3.55353075 12.52164009 3.55353075 12.52164009 0 18 C-0.99 17.34 -1.98 16.68 -3 16 C-2.505 15.030625 -2.01 14.06125 -1.5 13.0625 C0.39857367 8.71271619 0.28589988 4.66969796 0 0 Z " fill="#70A48D" transform="translate(321,284)"/>
<path d="M0 0 C0.99 0 1.98 0 3 0 C2.67 5.94 2.34 11.88 2 18 C1.34 17.67 0.68 17.34 0 17 C0 11.39 0 5.78 0 0 Z " fill="#89B5A4" transform="translate(221,264)"/>
<path d="M0 0 C0.33 0 0.66 0 1 0 C1.06058594 0.67546875 1.12117187 1.3509375 1.18359375 2.046875 C1.26738281 2.93890625 1.35117188 3.8309375 1.4375 4.75 C1.55931641 6.07257813 1.55931641 6.07257813 1.68359375 7.421875 C1.92829623 9.94805175 1.92829623 9.94805175 2.59375 12.125 C3.22794464 15.05205219 2.053217 17.27402659 1 20 C-1.67289025 16.12328894 -1.01875653 12.20732397 -0.625 7.75 C-0.56828125 7.00492187 -0.5115625 6.25984375 -0.453125 5.4921875 C-0.31223742 3.66064892 -0.15748116 1.83018648 0 0 Z " fill="#618D80" transform="translate(208,408)"/>
<path d="M0 0 C2.5 2.3125 2.5 2.3125 5 5 C5 5.99 5 6.98 5 8 C4.34 8.66 3.68 9.32 3 10 C1.68 9.34 0.36 8.68 -1 8 C-0.34 8 0.32 8 1 8 C1 7.34 1 6.68 1 6 C0.01 5.67 -0.98 5.34 -2 5 C-1.34 4.67 -0.68 4.34 0 4 C0 2.68 0 1.36 0 0 Z " fill="#8CC583" transform="translate(323,54)"/>
<path d="M0 0 C2 3.75 2 3.75 2 6 C2.66 6 3.32 6 4 6 C6.23269231 13.44230769 6.23269231 13.44230769 5.0546875 16.265625 C4.70664063 16.83796875 4.35859375 17.4103125 4 18 C3.32451422 15.94037148 2.65995688 13.87715678 2 11.8125 C1.62875 10.66394531 1.2575 9.51539063 0.875 8.33203125 C0.09369447 5.35679188 -0.18363306 3.04716104 0 0 Z " fill="#7DAD95" transform="translate(108,299)"/>
<path d="M0 0 C0 1.98 0 3.96 0 6 C-0.99 6 -1.98 6 -3 6 C-3.66 6.66 -4.32 7.32 -5 8 C-5.66 8 -6.32 8 -7 8 C-6.62952882 5.25851328 -6.31412056 3.41406801 -4.625 1.1875 C-3 0 -3 0 0 0 Z " fill="#5C9981" transform="translate(320,301)"/>
<path d="M0 0 C0.99 0.66 1.98 1.32 3 2 C-0.3 5.3 -3.6 8.6 -7 12 C-7.33 11.01 -7.66 10.02 -8 9 C-6.6015625 6.9921875 -6.6015625 6.9921875 -4.625 4.875 C-3.97789062 4.17117187 -3.33078125 3.46734375 -2.6640625 2.7421875 C-1.7838265 1.82062587 -0.90113574 0.90113574 0 0 Z " fill="#83B199" transform="translate(283,243)"/>
<path d="M0 0 C-0.33 1.32 -0.66 2.64 -1 4 C-3.64 4.33 -6.28 4.66 -9 5 C-8.67 4.34 -8.34 3.68 -8 3 C-7.67 2.01 -7.34 1.02 -7 0 C-3.86650268 -1.04449911 -3.01031744 -0.93423645 0 0 Z " fill="#64A390" transform="translate(231,417)"/>
<path d="M0 0 C0.66 0 1.32 0 2 0 C2 5.94 2 11.88 2 18 C1.67 18 1.34 18 1 18 C1 16.35 1 14.7 1 13 C0.34 13 -0.32 13 -1 13 C-0.67 8.71 -0.34 4.42 0 0 Z " fill="#529374" transform="translate(175,280)"/>
<path d="M0 0 C2 1 2 1 3.125 3.8125 C4 7 4 7 4 11 C2 13.25 2 13.25 0 15 C-0.66 14.34 -1.32 13.68 -2 13 C-1.01 13 -0.02 13 1 13 C0.67 8.71 0.34 4.42 0 0 Z " fill="#72B382" transform="translate(210,198)"/>
<path d="M0 0 C0 0.99 0 1.98 0 3 C0.66 3 1.32 3 2 3 C1.67 4.65 1.34 6.3 1 8 C-1.64 8 -4.28 8 -7 8 C-6.02133662 6.85373678 -5.04205413 5.70800212 -4.0625 4.5625 C-3.51722656 3.92441406 -2.97195313 3.28632813 -2.41015625 2.62890625 C-1.63204305 1.73008851 -0.84063472 0.84063472 0 0 Z " fill="#70A98C" transform="translate(277,270)"/>
<path d="M0 0 C0.33 0.99 0.66 1.98 1 3 C1.99 3 2.98 3 4 3 C2.83917375 6.48247874 2.09067524 6.88819244 -0.9375 8.75 C-1.64777344 9.19859375 -2.35804688 9.6471875 -3.08984375 10.109375 C-3.72019531 10.40328125 -4.35054688 10.6971875 -5 11 C-5.66 10.67 -6.32 10.34 -7 10 C-6.57847656 9.52949219 -6.15695312 9.05898437 -5.72265625 8.57421875 C-5.17480469 7.95160156 -4.62695312 7.32898438 -4.0625 6.6875 C-3.51722656 6.07261719 -2.97195313 5.45773438 -2.41015625 4.82421875 C-0.79918441 2.94758042 -0.79918441 2.94758042 0 0 Z " fill="#77B190" transform="translate(315,229)"/>
<path d="M0 0 C3.78611227 0.54087318 5.55400767 2.11722332 8 5 C8 5.66 8 6.32 8 7 C10.31 7 12.62 7 15 7 C15 7.33 15 7.66 15 8 C10.26268466 8.3267114 7.84821194 8.43181699 3.5625 6.25 C1.06337056 4.05564244 0.23206404 3.24889654 0 0 Z " fill="#89BA99" transform="translate(173,210)"/>
<path d="M0 0 C5.2295082 2.3442623 5.2295082 2.3442623 7 5 C7.37366715 7.79962924 7.22702926 10.13943129 7 13 C6.34 13.66 5.68 14.32 5 15 C4.89042969 14.33613281 4.78085938 13.67226562 4.66796875 12.98828125 C3.78863977 8.09120522 3.00548286 4.09838572 0 0 Z " fill="#89B994" transform="translate(189,197)"/>
<path d="M0 0 C0.99 0 1.98 0 3 0 C2 3 2 3 -1 5 C-4.1875 5.125 -4.1875 5.125 -7 5 C-7 3.68 -7 2.36 -7 1 C-5.5459375 1.0309375 -5.5459375 1.0309375 -4.0625 1.0625 C-1.12534105 1.35618499 -1.12534105 1.35618499 0 0 Z " fill="#569280" transform="translate(276,391)"/>
<path d="M0 0 C1.32 0.99 2.64 1.98 4 3 C3.42647107 6.87132028 1.51295648 9.08172796 -1 12 C-0.67 8.04 -0.34 4.08 0 0 Z " fill="#63A280" transform="translate(289,272)"/>
<path d="M0 0 C0.33 0 0.66 0 1 0 C2.42857143 8.42857143 2.42857143 8.42857143 0 13 C-0.99 13 -1.98 13 -3 13 C-2.69240822 11.02006459 -2.3787932 9.04106401 -2.0625 7.0625 C-1.88847656 5.96035156 -1.71445313 4.85820312 -1.53515625 3.72265625 C-1 1 -1 1 0 0 Z " fill="#73AB88" transform="translate(254,221)"/>
<path d="M0 0 C1.32 0.66 2.64 1.32 4 2 C1.47043472 5.0916909 -1.22454612 5.90931332 -5 7 C-5.33 6.01 -5.66 5.02 -6 4 C-5.34 4 -4.68 4 -4 4 C-3.67 3.34 -3.34 2.68 -3 2 C-2.34 2 -1.68 2 -1 2 C-0.67 1.34 -0.34 0.68 0 0 Z " fill="#619F8C" transform="translate(241,410)"/>
<path d="M0 0 C2.125 0.9375 2.125 0.9375 4 2 C3.67 3.98 3.34 5.96 3 8 C0.5 6.1875 0.5 6.1875 -2 4 C-2 3.01 -2 2.02 -2 1 C-1.34 0.67 -0.68 0.34 0 0 Z " fill="#619E86" transform="translate(160,385)"/>
<path d="M0 0 C0 3 0 3 -2 6 C-2.66 6 -3.32 6 -4 6 C-4.12375 6.639375 -4.2475 7.27875 -4.375 7.9375 C-4.58125 8.618125 -4.7875 9.29875 -5 10 C-5.99 10.495 -5.99 10.495 -7 11 C-7.66 10.34 -8.32 9.68 -9 9 C-8.360625 8.79375 -7.72125 8.5875 -7.0625 8.375 C-4.65074923 7.10461791 -4.65074923 7.10461791 -4.25 3.875 C-4.1675 2.92625 -4.085 1.9775 -4 1 C-2.68 0.67 -1.36 0.34 0 0 Z " fill="#589D77" transform="translate(279,246)"/>
<path d="M0 0 C0 2.33333333 0 4.66666667 0 7 C-2 8.75 -2 8.75 -4 10 C-4.66 9.67 -5.32 9.34 -6 9 C-6 6 -6 6 -4.6875 4.39453125 C-4.130625 3.87246094 -3.57375 3.35039062 -3 2.8125 C-2.443125 2.28269531 -1.88625 1.75289062 -1.3125 1.20703125 C-0.6628125 0.60955078 -0.6628125 0.60955078 0 0 Z " fill="#94C390" transform="translate(167,138)"/>
<path d="M0 0 C1.32 0.66 2.64 1.32 4 2 C1.6875 4.5 1.6875 4.5 -1 7 C-1.99 7 -2.98 7 -4 7 C-3.43628586 3.73045798 -2.50037734 2.17424117 0 0 Z " fill="#8BC281" transform="translate(264,79)"/>
<path d="M0 0 C0 4.32035599 -2.06845243 6.9179135 -5 10 C-7.8125 10.9375 -7.8125 10.9375 -10 11 C-6.79239749 7.19364503 -3.59253891 3.45436433 0 0 Z " fill="#81B2A0" transform="translate(232,369)"/>
<path d="M0 0 C0.33 1.32 0.66 2.64 1 4 C-1.31 5.98 -3.62 7.96 -6 10 C-5.58578031 5.16743695 -3.53586014 3.17320782 0 0 Z " fill="#76AA96" transform="translate(322,352)"/>
<path d="M0 0 C0.33 0.99 0.66 1.98 1 3 C1.99 2.34 2.98 1.68 4 1 C4.33 2.32 4.66 3.64 5 5 C3.02 5.99 1.04 6.98 -1 8 C-1 7.34 -1 6.68 -1 6 C-1.99 5.34 -2.98 4.68 -4 4 C-3.01 3.67 -2.02 3.34 -1 3 C-0.67 2.01 -0.34 1.02 0 0 Z " fill="#69A790" transform="translate(262,339)"/>
<path d="M0 0 C0 1.98 0 3.96 0 6 C-0.99 5.67 -1.98 5.34 -3 5 C-5.63804589 5.39397335 -5.63804589 5.39397335 -8 6 C-3.375 0 -3.375 0 0 0 Z " fill="#6BA887" transform="translate(302,248)"/>
<path d="M0 0 C0.99 0.33 1.98 0.66 3 1 C2.01 1.8971875 2.01 1.8971875 1 2.8125 C-1.3373846 4.87501834 -1.3373846 4.87501834 -1 8 C-2 10.1875 -2 10.1875 -3 12 C-3 10.68 -3 9.36 -3 8 C-3.66 8 -4.32 8 -5 8 C-4.45773019 4.20411134 -2.79872437 2.52788007 0 0 Z " fill="#9ECC94" transform="translate(313,43)"/>
<path d="M0 0 C0.66 0 1.32 0 2 0 C2.6875 2.8125 2.6875 2.8125 3 6 C1.5625 7.875 1.5625 7.875 0 9 C0 8.34 0 7.68 0 7 C-0.66 7 -1.32 7 -2 7 C-1.42415568 4.61435923 -0.77772405 2.33317216 0 0 Z " fill="#4F9984" transform="translate(210,440)"/>
<path d="M0 0 C0.99 0.33 1.98 0.66 3 1 C0.03 3.97 -2.94 6.94 -6 10 C-6.33 9.01 -6.66 8.02 -7 7 C-4.69 4.69 -2.38 2.38 0 0 Z " fill="#3E7E65" transform="translate(279,323)"/>
<path d="M0 0 C1.65 0 3.3 0 5 0 C6.8125 2 6.8125 2 8 4 C7.34 5.32 6.68 6.64 6 8 C4.02 5.36 2.04 2.72 0 0 Z " fill="#6FA88B" transform="translate(314,275)"/>
<path d="M0 0 C1.32 0.33 2.64 0.66 4 1 C3.979375 1.763125 3.95875 2.52625 3.9375 3.3125 C3.87057159 6.10185786 3.87057159 6.10185786 5 9 C4.01 10.485 4.01 10.485 3 12 C2.49440092 10.56445975 1.9957251 9.1264798 1.5 7.6875 C1.2215625 6.88699219 0.943125 6.08648437 0.65625 5.26171875 C0 3 0 3 0 0 Z " fill="#5EA181" transform="translate(361,274)"/>
<path d="M0 0 C0.66 0.33 1.32 0.66 2 1 C1.61402985 3.79828356 1.19863427 4.8205884 -0.9375 6.75 C-3 8 -3 8 -5 8 C-4.45773019 4.20411134 -2.79872437 2.52788007 0 0 Z " fill="#76AC8D" transform="translate(227,256)"/>
<path d="M0 0 C0.66 0 1.32 0 2 0 C1.43040847 3.62613199 0.07625466 5.25517741 -2.5625 7.75 C-3.52349609 8.67039063 -3.52349609 8.67039063 -4.50390625 9.609375 C-4.99761719 10.06828125 -5.49132812 10.5271875 -6 11 C-6 7.43770549 -5.23890991 6.58890321 -3.125 3.8125 C-2.59132812 3.09707031 -2.05765625 2.38164062 -1.5078125 1.64453125 C-0.76144531 0.83048828 -0.76144531 0.83048828 0 0 Z " fill="#56906E" transform="translate(217,245)"/>
<path d="M0 0 C0.33 0 0.66 0 1 0 C0.75 3.375 0.75 3.375 0 7 C-2.0625 8.4375 -2.0625 8.4375 -4 9 C-4.6875 7.1875 -4.6875 7.1875 -5 5 C-3.6875 3.375 -3.6875 3.375 -2 2 C-1.34 1.34 -0.68 0.68 0 0 Z " fill="#68AE78" transform="translate(318,183)"/>
<path d="M0 0 C0 0.66 0 1.32 0 2 C-0.99 2 -1.98 2 -3 2 C-3 2.99 -3 3.98 -3 5 C-6.3 5.66 -9.6 6.32 -13 7 C-3.66666667 0 -3.66666667 0 0 0 Z " fill="#A6CEA0" transform="translate(242,92)"/>
<path d="M0 0 C1.98 0.495 1.98 0.495 4 1 C3.34 1.66 2.68 2.32 2 3 C2.33 3 2.66 3 3 3 C3 4.65 3 6.3 3 8 C2.01 8 1.02 8 0 8 C-0.98120464 4.94736336 -0.98120464 3.05263664 0 0 Z " fill="#51977E" transform="translate(322,345)"/>
<path d="M0 0 C0.33 0 0.66 0 1 0 C1 2.97 1 5.94 1 9 C1.99 9.33 2.98 9.66 4 10 C2.35 11.32 0.7 12.64 -1 14 C-1.08333357 9.1666528 -0.95261487 4.76307437 0 0 Z " fill="#67A58C" transform="translate(284,288)"/>
<path d="M0 0 C0.33 1.32 0.66 2.64 1 4 C-0.9375 6.75 -0.9375 6.75 -3 9 C-3.99 8.01 -4.98 7.02 -6 6 C-4.02 4.02 -2.04 2.04 0 0 Z " fill="#75AA8E" transform="translate(293,254)"/>
<path d="M0 0 C1.32 0.66 2.64 1.32 4 2 C3.67 2.99 3.34 3.98 3 5 C-0.0625 6.1875 -0.0625 6.1875 -3 7 C-2.38722388 4.03824877 -1.74627478 2.61941217 0 0 Z " fill="#7BBB78" transform="translate(169,137)"/>
<path d="M0 0 C1 4 1 4 0 6 C-0.99 6 -1.98 6 -3 6 C-3 6.66 -3 7.32 -3 8 C-4.32 7.67 -5.64 7.34 -7 7 C-4.69 4.69 -2.38 2.38 0 0 Z " fill="#76AB8B" transform="translate(240,244)"/>
<path d="M0 0 C1.32 0.66 2.64 1.32 4 2 C4 2.66 4 3.32 4 4 C4.66 4 5.32 4 6 4 C5.67 4.99 5.34 5.98 5 7 C0.25 5.125 0.25 5.125 -2 4 C-1.34 2.68 -0.68 1.36 0 0 Z " fill="#4F9883" transform="translate(227,466)"/>
<path d="M0 0 C0.66 0 1.32 0 2 0 C4.40240978 3.02525676 5.05541631 4.4125871 4.6875 8.3125 C4.460625 9.199375 4.23375 10.08625 4 11 C3.34 11 2.68 11 2 11 C2.04125 10.05125 2.0825 9.1025 2.125 8.125 C2.34973818 4.89755144 2.34973818 4.89755144 0 3 C0 2.01 0 1.02 0 0 Z " fill="#509275" transform="translate(321,281)"/>
<path d="M0 0 C0.66 0.33 1.32 0.66 2 1 C2 2.32 2 3.64 2 5 C-0.93720508 6.52299523 -3.9168649 7.80100302 -7 9 C-6.02180976 7.68677212 -5.0424189 6.37443848 -4.0625 5.0625 C-3.51722656 4.33160156 -2.97195313 3.60070312 -2.41015625 2.84765625 C-1 1 -1 1 0 0 Z " fill="#8ABAA2" transform="translate(285,261)"/>
<path d="M0 0 C0.66 1.32 1.32 2.64 2 4 C1.01 4.99 0.02 5.98 -1 7 C-2.32 6.34 -3.64 5.68 -5 5 C-3.35 3.35 -1.7 1.7 0 0 Z " fill="#70A88B" transform="translate(246,238)"/>
<path d="M0 0 C3.63 0 7.26 0 11 0 C11 0.99 11 1.98 11 3 C9.54176788 3.0270043 8.08339325 3.04639787 6.625 3.0625 C5.81289063 3.07410156 5.00078125 3.08570313 4.1640625 3.09765625 C2 3 2 3 0 2 C0 1.34 0 0.68 0 0 Z " fill="#609C71" transform="translate(303,192)"/>
<path d="M0 0 C0.33 0 0.66 0 1 0 C1.33 4.95 1.66 9.9 2 15 C1.01 15.495 1.01 15.495 0 16 C-0.91397824 10.31302429 -0.91397824 5.68697571 0 0 Z " fill="#72AB73" transform="translate(220,141)"/>
<path d="M0 0 C0.66 0 1.32 0 2 0 C2.53229326 1.26607607 3.05044544 2.53810412 3.5625 3.8125 C3.85253906 4.52019531 4.14257812 5.22789063 4.44140625 5.95703125 C5 8 5 8 4 11 C3.34 10.67 2.68 10.34 2 10 C1.65846063 8.33499557 1.32550502 6.66821323 1 5 C0.34 4.34 -0.32 3.68 -1 3 C-0.67 2.01 -0.34 1.02 0 0 Z " fill="#72A975" transform="translate(356,114)"/>
<path d="M0 0 C1.04449911 3.13349732 0.93423645 3.98968256 0 7 C-1.32 7 -2.64 7 -4 7 C-4 5 -4 5 -3 4 C-3.66 3.67 -4.32 3.34 -5 3 C-3.35 2.01 -1.7 1.02 0 0 Z " fill="#98CC90" transform="translate(276,72)"/>
<path d="M0 0 C2.64752004 2.57784846 4.94432065 4.91648098 7 8 C6.01 8.33 5.02 8.66 4 9 C0 3.375 0 3.375 0 0 Z " fill="#9BC791" transform="translate(316,45)"/>
<path d="M0 0 C2.67901932 2.31881505 3.66204403 4.31814468 4.6875 7.6875 C4.93886719 8.49574219 5.19023437 9.30398438 5.44921875 10.13671875 C5.63097656 10.75160156 5.81273437 11.36648438 6 12 C3 11 3 11 2.05078125 9.2578125 C1.80714844 8.55398438 1.56351563 7.85015625 1.3125 7.125 C1.06113281 6.42632812 0.80976563 5.72765625 0.55078125 5.0078125 C0 3 0 3 0 0 Z " fill="#397B69" transform="translate(210,435)"/>
<path d="M0 0 C0.66 0.99 1.32 1.98 2 3 C1.34 3 0.68 3 0 3 C0.33 4.32 0.66 5.64 1 7 C-0.32 7.33 -1.64 7.66 -3 8 C-2.74438677 5.6568787 -2.40729228 3.32156597 -2 1 C-1.34 0.67 -0.68 0.34 0 0 Z " fill="#4F927B" transform="translate(300,369)"/>
<path d="M0 0 C0.66 0 1.32 0 2 0 C1.52797514 4.24822374 -0.96655518 6.19989709 -4 9 C-4 7.35 -4 5.7 -4 4 C-2.68 3.34 -1.36 2.68 0 2 C0 1.34 0 0.68 0 0 Z " fill="#7BAE94" transform="translate(246,280)"/>
<path d="M0 0 C-1.39332574 3.36720387 -2.9789286 4.9859524 -6 7 C-6.66 6.67 -7.32 6.34 -8 6 C-6.72879117 2.18637351 -4.19078006 0 0 0 Z " fill="#579677" transform="translate(254,274)"/>
<path d="M0 0 C2.05078125 0.03255208 4.1015625 0.06510417 6.15234375 0.09765625 C5.16234375 1.58265625 5.16234375 1.58265625 4.15234375 3.09765625 C2.50234375 2.76765625 0.85234375 2.43765625 -0.84765625 2.09765625 C-1.83765625 3.58265625 -1.83765625 3.58265625 -2.84765625 5.09765625 C-3.50765625 5.09765625 -4.16765625 5.09765625 -4.84765625 5.09765625 C-2.44354091 0.12915121 -2.44354091 0.12915121 0 0 Z " fill="#6AAB76" transform="translate(178.84765625,196.90234375)"/>
<path d="M0 0 C0.99 0 1.98 0 3 0 C3 0.99 3 1.98 3 3 C2.34 3 1.68 3 1 3 C1.33 4.32 1.66 5.64 2 7 C1.01 7 0.02 7 -1 7 C-1.625 5.1875 -1.625 5.1875 -2 3 C-1.34 2.01 -0.68 1.02 0 0 Z " fill="#79BE7A" transform="translate(141,169)"/>
<path d="M0 0 C-2 2 -2 2 -5.5 2.25 C-9 2 -9 2 -11 0 C-6.94952424 -1.35015859 -4.2079832 -0.62084998 0 0 Z " fill="#9AC69A" transform="translate(252,137)"/>
<path d="M0 0 C-0.7115625 0.5878125 -0.7115625 0.5878125 -1.4375 1.1875 C-3.35179633 3.40808374 -3.61266988 5.13375709 -4 8 C-6.14720899 5.85279101 -6.5434221 4.92209857 -7 2 C-5.26578631 -1.46842738 -3.40984787 -1.13661596 0 0 Z " fill="#82BE74" transform="translate(283,72)"/>
<path d="M0 0 C2.67318976 5.16816686 2.98463588 8.20158873 2 14 C0.09391902 10.78817851 -0.22266247 8.46117397 -0.125 4.75 C-0.09792969 3.41195313 -0.09792969 3.41195313 -0.0703125 2.046875 C-0.04710937 1.37140625 -0.02390625 0.6959375 0 0 Z " fill="#438974" transform="translate(193,422)"/>
<path d="M0 0 C0 3.57575896 -1.08840607 5.05295935 -3 8 C-4.32 7.67 -5.64 7.34 -7 7 C-4.69 4.69 -2.38 2.38 0 0 Z " fill="#6FB59D" transform="translate(257,344)"/>
<path d="M0 0 C0.33 1.65 0.66 3.3 1 5 C0.01 5.495 0.01 5.495 -1 6 C-1 5.34 -1 4.68 -1 4 C-1.66 3.67 -2.32 3.34 -3 3 C-2.67 2.34 -2.34 1.68 -2 1 C-3.98 1.66 -5.96 2.32 -8 3 C-5.45189726 -0.82215411 -4.39145359 -1.46381786 0 0 Z " fill="#63A288" transform="translate(295,313)"/>
<path d="M0 0 C0.928125 0.20625 1.85625 0.4125 2.8125 0.625 C-0.4553206 2.80354707 -3.56808265 4.12260034 -7.1875 5.625 C-6.875 3.75 -6.875 3.75 -6.1875 1.625 C-3.1875 -0.375 -3.1875 -0.375 0 0 Z " fill="#9BC3A1" transform="translate(176.1875,181.375)"/>
<path d="M0 0 C0.33 0.66 0.66 1.32 1 2 C-2.83325617 4.70582788 -5.32538149 5.32613618 -10 5 C-7.3401439 1.55783328 -4.09711714 1.00495326 0 0 Z " fill="#93C28D" transform="translate(234,97)"/>
<path d="M0 0 C0 3.57575896 -1.08840607 5.05295935 -3 8 C-4.32 7.67 -5.64 7.34 -7 7 C-4.69 4.69 -2.38 2.38 0 0 Z " fill="#6BB79D" transform="translate(242,359)"/>
<path d="M0 0 C0.93423645 3.01031744 1.04449911 3.86650268 0 7 C-1.32 7 -2.64 7 -4 7 C-3.43628586 3.73045798 -2.50037734 2.17424117 0 0 Z " fill="#529D7F" transform="translate(270,335)"/>
<path d="M0 0 C0.33 0 0.66 0 1 0 C1.85298376 3.67387495 2.10789471 7.0447393 2.0625 10.8125 C2.05347656 11.78832031 2.04445313 12.76414063 2.03515625 13.76953125 C2.02355469 14.50558594 2.01195312 15.24164063 2 16 C1.67 16 1.34 16 1 16 C0.77213542 14.01432292 0.54427083 12.02864583 0.31640625 10.04296875 C0.02829265 7.80603607 0.02829265 7.80603607 -1 5 C-0.5625 2.3125 -0.5625 2.3125 0 0 Z " fill="#BBD3C3" transform="translate(302,207)"/>
<path d="M0 0 C0.66 0.33 1.32 0.66 2 1 C2.40729228 3.32156597 2.74438677 5.6568787 3 8 C1.68 7.67 0.36 7.34 -1 7 C-0.67 4.69 -0.34 2.38 0 0 Z " fill="#4A9078" transform="translate(164,386)"/>
<path d="M0 0 C1.32 0.33 2.64 0.66 4 1 C4 1.66 4 2.32 4 3 C4.99 3.33 5.98 3.66 7 4 C6.34 5.32 5.68 6.64 5 8 C2.525 4.04 2.525 4.04 0 0 Z " fill="#6CA28C" transform="translate(136,363)"/>
<path d="M0 0 C0.33 1.32 0.66 2.64 1 4 C-0.65 4.33 -2.3 4.66 -4 5 C-4 4.01 -4 3.02 -4 2 C-2.68 1.34 -1.36 0.68 0 0 Z " fill="#559A81" transform="translate(341,328)"/>
<path d="M0 0 C0.66 0.33 1.32 0.66 2 1 C3.53668865 1.22467831 5.07968054 1.40796805 6.625 1.5625 C7.44226563 1.64628906 8.25953125 1.73007812 9.1015625 1.81640625 C9.72804688 1.87699219 10.35453125 1.93757813 11 2 C11 2.33 11 2.66 11 3 C9.04235617 3.19456705 7.08384679 3.38044247 5.125 3.5625 C4.03445313 3.66691406 2.94390625 3.77132813 1.8203125 3.87890625 C-1 4 -1 4 -3 3 C-2.01 2.01 -1.02 1.02 0 0 Z " fill="#45846B" transform="translate(298,306)"/>
<path d="M0 0 C0.66 0 1.32 0 2 0 C3.15837626 4.05431692 2.83691257 6.21812119 1 10 C0.34 9.67 -0.32 9.34 -1 9 C-0.67 6.03 -0.34 3.06 0 0 Z " fill="#4E9172" transform="translate(238,291)"/>
<path d="M0 0 C0.99 0.33 1.98 0.66 3 1 C2.34 2.65 1.68 4.3 1 6 C-0.32 6 -1.64 6 -3 6 C-2.625 3.5625 -2.625 3.5625 -2 1 C-1.34 0.67 -0.68 0.34 0 0 Z " fill="#549D7E" transform="translate(355,297)"/>
<path d="M0 0 C0.33 0 0.66 0 1 0 C0.67 4.29 0.34 8.58 0 13 C-0.33 13 -0.66 13 -1 13 C-1.22245393 11.39773045 -1.42746669 9.79303233 -1.625 8.1875 C-1.74101562 7.29417969 -1.85703125 6.40085937 -1.9765625 5.48046875 C-2 3 -2 3 0 0 Z " fill="#539072" transform="translate(287,281)"/>
<path d="M0 0 C1.98 0.495 1.98 0.495 4 1 C4 1.99 4 2.98 4 4 C3.34 4 2.68 4 2 4 C1.67 4.66 1.34 5.32 1 6 C0.34 5.67 -0.32 5.34 -1 5 C-0.67 3.35 -0.34 1.7 0 0 Z " fill="#529F7B" transform="translate(267,281)"/>
<path d="M0 0 C2.97 0 5.94 0 9 0 C7 3 7 3 5 5 C3.35 3.35 1.7 1.7 0 0 Z " fill="#8DC195" transform="translate(321,162)"/>
<path d="M0 0 C2.625 0.9375 2.625 0.9375 5 2 C2.36095629 3.41377341 -0.07120629 4.37240135 -3 5 C-2.625 3.0625 -2.625 3.0625 -2 1 C-1.34 0.67 -0.68 0.34 0 0 Z " fill="#A3C7A0" transform="translate(238,122)"/>
<path d="M0 0 C1.65 0.33 3.3 0.66 5 1 C3.35 2.65 1.7 4.3 0 6 C-1.125 2.25 -1.125 2.25 0 0 Z " fill="#75AD9A" transform="translate(301,370)"/>
<path d="M0 0 C0.99 0.33 1.98 0.66 3 1 C1.35 2.98 -0.3 4.96 -2 7 C-2.33 5.68 -2.66 4.36 -3 3 C-2.34 3 -1.68 3 -1 3 C-0.67 2.01 -0.34 1.02 0 0 Z " fill="#74A895" transform="translate(328,345)"/>
<path d="M0 0 C0.66 0.33 1.32 0.66 2 1 C2 2.32 2 3.64 2 5 C-0.31 5.33 -2.62 5.66 -5 6 C-3.35 4.02 -1.7 2.04 0 0 Z " fill="#7AAC9A" transform="translate(295,307)"/>
<path d="M0 0 C0.66 0 1.32 0 2 0 C3.125 7.625 3.125 7.625 2 11 C0.57741188 7.17679443 -0.24042276 4.08718695 0 0 Z " fill="#51936F" transform="translate(108,294)"/>
<path d="M0 0 C2.475 0.99 2.475 0.99 5 2 C5 3.65 5 5.3 5 7 C4.34 7 3.68 7 3 7 C2.67 6.01 2.34 5.02 2 4 C1.34 3.34 0.68 2.68 0 2 C0 1.34 0 0.68 0 0 Z " fill="#7DB190" transform="translate(172,228)"/>
<path d="M0 0 C0.33 0.99 0.66 1.98 1 3 C-0.4375 5.1875 -0.4375 5.1875 -2 7 C-3.32 6.67 -4.64 6.34 -6 6 C-4.02 4.02 -2.04 2.04 0 0 Z " fill="#7CAB8C" transform="translate(204,220)"/>
<path d="M0 0 C0.66 0.33 1.32 0.66 2 1 C0.515 3.475 0.515 3.475 -1 6 C-2.65 5.67 -4.3 5.34 -6 5 C-4.06745228 2.9754262 -2.36841312 1.57894208 0 0 Z " fill="#97C491" transform="translate(218,104)"/>
<path d="M0 0 C2.15377564 2.62198774 3.40072174 4.64404172 4 8 C3.01 8 2.02 8 1 8 C0.26919734 6.02253397 -0.39421747 4.01927511 -1 2 C-0.67 1.34 -0.34 0.68 0 0 Z " fill="#A0C29A" transform="translate(344,85)"/>
<path d="M0 0 C1.98 0.495 1.98 0.495 4 1 C3.67 1.99 3.34 2.98 3 4 C1.68 4 0.36 4 -1 4 C-0.67 2.68 -0.34 1.36 0 0 Z " fill="#7DC172" transform="translate(248,89)"/>
<path d="M0 0 C1.98 0.99 1.98 0.99 4 2 C4 3.32 4 4.64 4 6 C3.01 6 2.02 6 1 6 C0.67 4.02 0.34 2.04 0 0 Z " fill="#4D8E7C" transform="translate(216,450)"/>
<path d="M0 0 C0.99 0.33 1.98 0.66 3 1 C2.67 2.32 2.34 3.64 2 5 C0.68 5.33 -0.64 5.66 -2 6 C-1.125 1.125 -1.125 1.125 0 0 Z " fill="#4F9979" transform="translate(281,297)"/>
<path d="M0 0 C2.34058637 2.12780579 3.70700306 4.11562221 5 7 C2.5625 6.25 2.5625 6.25 0 5 C-0.875 2.9375 -0.875 2.9375 -1 1 C-0.67 0.67 -0.34 0.34 0 0 Z " fill="#79AE8C" transform="translate(161,216)"/>
<path d="M0 0 C0 0.33 0 0.66 0 1 C-6.0546875 1.9765625 -6.0546875 1.9765625 -8 2 C-8.66 1.34 -9.32 0.68 -10 0 C-5.91847062 -2.09907226 -4.08152938 -2.09907226 0 0 Z " fill="#87BB8E" transform="translate(307,159)"/>
<path d="M0 0 C0.66 0 1.32 0 2 0 C0.55746343 3.36591866 -1.33264727 5.51047079 -4 8 C-4.66 7.67 -5.32 7.34 -6 7 C-5.04882866 5.8274869 -4.08882991 4.66212985 -3.125 3.5 C-2.59132812 2.8503125 -2.05765625 2.200625 -1.5078125 1.53125 C-0.76144531 0.77328125 -0.76144531 0.77328125 0 0 Z " fill="#6FAE71" transform="translate(152,154)"/>
<path d="M0 0 C-0.33 1.32 -0.66 2.64 -1 4 C-5 4 -5 4 -7 3 C-7 2.34 -7 1.68 -7 1 C-2.25 0 -2.25 0 0 0 Z " fill="#73B773" transform="translate(252,138)"/>
<path d="M0 0 C1.32 0.99 2.64 1.98 4 3 C2.68 3.99 1.36 4.98 0 6 C0 5.34 0 4.68 0 4 C-0.99 3.67 -1.98 3.34 -3 3 C-2.01 2.01 -1.02 1.02 0 0 Z " fill="#7FC37C" transform="translate(259,120)"/>
<path d="M0 0 C2.475 0.99 2.475 0.99 5 2 C4.67 3.65 4.34 5.3 4 7 C2.10786631 4.61426621 0.97608217 2.92824652 0 0 Z " fill="#4D9883" transform="translate(202,459)"/>
<path d="M0 0 C2.125 0.9375 2.125 0.9375 4 2 C3.01 2.99 2.02 3.98 1 5 C0.01 4.67 -0.98 4.34 -2 4 C-2 3.01 -2 2.02 -2 1 C-1.34 0.67 -0.68 0.34 0 0 Z " fill="#509A81" transform="translate(280,384)"/>
<path d="M0 0 C0.66 0 1.32 0 2 0 C2.1875 2.375 2.1875 2.375 2 5 C1.01 5.66 0.02 6.32 -1 7 C-1.04254356 5.00045254 -1.04080783 2.99958364 -1 1 C-0.67 0.67 -0.34 0.34 0 0 Z " fill="#62A18B" transform="translate(335,334)"/>
<path d="M0 0 C1.5 1.125 1.5 1.125 3 3 C3.1875 6.1875 3.1875 6.1875 3 9 C2.67 8.34 2.34 7.68 2 7 C1.34 7 0.68 7 0 7 C0 4.69 0 2.38 0 0 Z " fill="#549677" transform="translate(116,321)"/>
<path d="M0 0 C0.33 0.99 0.66 1.98 1 3 C1.66 3 2.32 3 3 3 C3.33 5.31 3.66 7.62 4 10 C1.2027092 7.93243723 0.97307727 6.85559629 0.3125 3.3125 C0.209375 2.219375 0.10625 1.12625 0 0 Z " fill="#A8CEB0" transform="translate(234,147)"/>
<path d="M0 0 C0.99 0 1.98 0 3 0 C3 0.99 3 1.98 3 3 C1.35 3.66 -0.3 4.32 -2 5 C-2 4.01 -2 3.02 -2 2 C-1.34 2 -0.68 2 0 2 C0 1.34 0 0.68 0 0 Z " fill="#84B782" transform="translate(232,124)"/>
<path d="M0 0 C1.32 1.65 2.64 3.3 4 5 C3 7 3 7 1 8 C-0.35439668 5.29120665 -0.06501451 2.99066732 0 0 Z " fill="#A8CCA3" transform="translate(340,78)"/>
<path d="" fill="#000000" transform="translate(0,0)"/>
</svg>
